<?xml version='1.0' encoding='utf-8'?>
<svg xmlns="http://www.w3.org/2000/svg" xmlns:ns1="http://sodipodi.sourceforge.net/DTD/sodipodi-0.dtd" viewBox="30 24 303 239" preserveAspectRatio="none" role="img" aria-label="แนวเขตหมู่ 1 ถึง 11 ตำบลท่าโพธ์"><style>
.village-zone{cursor:pointer;outline:none}
.village-zone path{fill:var(--village-fill,#15956f);fill-opacity:.30;stroke:#ffffff;stroke-width:1.15;vector-effect:non-scaling-stroke;transition:fill-opacity .16s ease,filter .16s ease,stroke-width .16s ease}
.village-zone:hover path,.village-zone:focus path,.village-zone.is-hovered path{fill-opacity:.52;filter:brightness(.95);stroke-width:2}
.village-zone.is-selected path{fill-opacity:.62;stroke:#07583f;stroke-width:3}
.village-label{font-family:"Noto Sans Thai","Tahoma",sans-serif;font-size:9px;font-weight:800;text-anchor:middle;dominant-baseline:middle;fill:#123f33;stroke:#fff;stroke-width:2.8;paint-order:stroke;pointer-events:none;user-select:none}
.boundary-line{fill:none;stroke:#0c674d;stroke-opacity:.68;stroke-width:1.25;vector-effect:non-scaling-stroke;pointer-events:none}
</style><title>แนวเขตหมู่บ้าน ตำบลท่าโพธ์</title><g id="village-1" class="village-zone" data-village-id="1" tabindex="0" aria-label="หมู่ที่ 1" style="--village-fill:#15956f"><path d="m 909.47776,534.10639 c -2.32002,-3.54078 -22.31525,-14.76528 -31.97776,-17.951 -4.4,-1.45067 -13.56478,-3.74387 -20.36618,-5.096 -6.8014,-1.35213 -12.52343,-2.61567 -12.71562,-2.80786 -0.19219,-0.19218 5.79306,-7.463 13.30054,-16.15737 l 13.64998,-15.80793 10.06564,0.61788 c 5.5361,0.33983 32.56564,1.52085 60.06564,2.62449 27.5,1.10364 51.10348,2.11119 52.45218,2.23901 1.83912,0.17429 -7.9038,6.94908 -38.97075,27.09849 -22.78262,14.77635 -41.9651,27.07414 -42.62775,27.32842 -0.66264,0.25428 -1.95681,-0.68538 -2.87592,-2.08813 z" id="path30201" transform="scale(0.26458333)" class="village-shape" fill="currentColor" stroke="none" />
    <path d="m 819.72159,546.85693 c 0.37348,-0.67835 19.83806,-33.45882 20.18726,-33.99755 0.32578,-0.50259 32.20336,6.87715 37.01323,8.56866 11.50979,4.0477 30.5157,15.83211 28.35146,17.57901 -0.61675,0.49781 -16.35919,5.49295 -17.31134,5.49295 -0.56704,0 -1.83447,-1.36018 -2.8165,-3.02263 -2.49005,-4.21532 -14.09684,-9.97737 -20.09791,-9.97737 -4.91618,0 -15.18442,3.50618 -23.04779,7.86988 -8.58969,4.76676 -23.54851,9.79394 -22.27841,7.48705 z" id="path32739" transform="scale(0.26458333)" class="village-shape" fill="currentColor" stroke="none" />
    <path d="m 940,472.81089 c -32.175,-1.33541 -59.53332,-2.64046 -60.79626,-2.90011 l -2.29626,-0.47211 2.11269,-2.967 c 3.87698,-5.44471 9.83169,-8.65923 18.5127,-9.99368 9.64033,-1.48191 26.42563,-1.53038 35.96713,-0.10385 l 7,1.04655 16.85817,-8.99654 c 9.27199,-4.9481 19.4848,-10.78025 22.69513,-12.96034 3.21033,-2.1801 6.61754,-3.96381 7.57157,-3.96381 0.95404,0 6.68019,1.18254 12.72483,2.62786 9.7109,2.32198 11.1192,2.45133 12.0991,1.11121 0.9143,-1.25026 3.3225,1.23021 13.7107,14.12214 L 1038.7611,465 l -15.6068,5.25 c -10.6212,3.5729 -17.0519,5.2083 -20.1305,5.11945 -2.4881,-0.0718 -30.8488,-1.22315 -63.0238,-2.55856 z" id="path32778" transform="scale(0.26458333)" class="village-shape" fill="currentColor" stroke="none" />
    <text class="village-label" x="236.00833" y="137.05415">1</text></g><g id="village-2" class="village-zone" data-village-id="2" tabindex="0" aria-label="หมู่ที่ 2" style="--village-fill:#15956f"><path d="m 825,503.92469 c -7.425,-1.84045 -16.425,-3.65332 -20,-4.0286 -8.72645,-0.91605 -9.57364,-1.30604 -17.24959,-7.94065 -5.80077,-5.01384 -6.78068,-6.36934 -7.69861,-10.64949 C 779.47331,478.60854 779,473.32716 779,469.56956 v -6.832 l 19.75656,5.76453 c 19.35795,5.64822 20.07923,5.77748 35.75,6.40697 8.79639,0.35335 19.45596,0.90049 23.68793,1.21587 l 7.6945,0.5734 -13.01397,15.15084 c -7.15768,8.33295 -13.32021,15.2118 -13.6945,15.28631 -0.37428,0.0745 -6.75552,-1.37034 -14.18052,-3.21079 z" id="path32963" transform="scale(0.26458333)" class="village-shape" fill="currentColor" stroke="none" />
    <path d="m 790.35144,547.92013 c -15.48288,-2.00198 -40.70044,-13.66827 -59.52968,-27.53997 -7.22158,-5.32021 -30.14042,-24.06032 -36.67665,-29.98951 l -4.8549,-4.40399 33.47309,-14.7855 33.47309,-14.78549 8.3818,2.32339 8.38181,2.3234 0.6142,9.46877 c 0.98733,15.22102 1.99956,17.78158 9.72281,24.59494 3.66464,3.23291 7.34002,6.403 8.16751,7.04464 0.82748,0.64164 5.32748,1.68338 10,2.31498 9.1434,1.23594 33.99548,6.85365 33.99548,7.68454 0,0.27765 -4.8167,8.53403 -10.70379,18.3475 l -10.70378,17.84267 -7.69478,0.31975 c -4.23212,0.17586 -11.45292,-0.16619 -16.04621,-0.76012 z" id="path34946" transform="scale(0.26458333)" class="village-shape" fill="currentColor" stroke="none" />
    <path d="m 838.5,468.39534 c -17.39857,-0.79823 -17.62129,-0.83793 -38.42783,-6.84911 -11.5103,-3.32543 -21.0728,-6.04623 -21.25,-6.04623 -1.03709,0 -0.0815,-8.09783 1.09437,-9.27369 1.73011,-1.73011 56.23578,-29.28245 89.09071,-45.03491 l 24.00726,-11.5104 64.99274,-19.57276 C 993.75326,359.34321 1040.325,345.23086 1061.5,338.74744 l 38.5,-11.78803 31,7.12624 c 28.2823,6.5015 33.4028,8.01758 58.4083,17.29382 l 27.4084,10.16759 15.7782,11.22647 15.7782,11.22647 -21.1866,4.20823 c -11.6525,2.31452 -22.9865,4.27847 -25.1865,4.36433 -2.2,0.0859 -15.7,-1.73093 -30,-4.03732 l -26,-4.19343 -24.2957,-8.9209 -24.2957,-8.92091 h -10.7858 -10.7858 l -33.6685,21.59156 c -27.1644,17.42049 -33.6682,22.00853 -33.6671,23.75 0,2.7035 2.6211,17.59517 3.4802,19.78574 0.5482,1.39788 -1.0268,1.22697 -11.1717,-1.21224 -6.49544,-1.56175 -12.7147,-2.85654 -13.82058,-2.8773 -1.10587,-0.0208 -5.01079,1.97486 -8.6776,4.43474 -3.66681,2.45987 -13.79618,8.29092 -22.5097,12.95787 l -15.84276,8.48538 -12.79967,-1.13488 c -9.75144,-0.86462 -15.58122,-0.84874 -24.47962,0.0667 -14.73685,1.516 -20.406,4.01944 -26.45039,11.68021 L 872,469.38837 l -8,-0.0951 c -4.4,-0.0523 -15.875,-0.45637 -25.5,-0.89796 z" id="path34985" transform="scale(0.26458333)" class="village-shape" fill="currentColor" stroke="none" />
    <text class="village-label" x="241.82916" y="114.03542">2</text></g><g id="village-3" class="village-zone" data-village-id="3" tabindex="0" aria-label="หมู่ที่ 3" style="--village-fill:#15956f"><path d="m 612.69345,409.00508 c -21.06859,-6.20666 -38.44311,-11.44689 -38.61002,-11.64496 -0.16692,-0.19806 -4.22035,-9.99275 -9.00763,-21.76597 l -8.70414,-21.40584 7.71994,-22.59416 c 4.24596,-12.42678 7.99522,-22.91703 8.33167,-23.31165 0.33646,-0.39463 6.90386,-1.41065 14.59423,-2.25782 7.69038,-0.84718 15.21175,-1.7489 16.71417,-2.00383 l 2.73167,-0.46352 -0.5723,5.72134 c -0.45616,4.56035 -0.0257,7.43365 2.12133,14.15963 2.38959,7.48591 3.49968,9.32668 9.83537,16.30933 4.78302,5.27143 10.17565,9.81677 16.32777,13.76235 18.88554,12.11199 28.36993,15.54798 46.82449,16.96351 6.05,0.46406 15.5,1.30754 21,1.8744 5.5,0.56687 16.59702,1.57768 24.66005,2.24626 13.94019,1.1559 14.71357,1.33305 15.75,3.60777 2.35483,5.1683 1.73377,5.78503 -9.16005,9.09624 -10.53775,3.20298 -14.6114,4.20836 -35.25,8.69972 -14.4468,3.14391 -29.88677,10.09399 -38.34662,17.26119 -3.10936,2.63426 -6.32838,5.29385 -7.15338,5.91021 -1.16514,0.87047 -10.05152,-1.39858 -39.80655,-10.1642 z" id="path13079" transform="scale(0.26458333)" class="village-shape" fill="currentColor" stroke="none" />
    <path d="m 635.23419,431.5855 c -0.9179,-1.55573 -1.96501,-2.15873 -8.88734,-5.11792 -7.41689,-3.17061 -8.13452,-3.37633 -13.09685,-3.75437 -2.8875,-0.21998 -6.31311,-0.41419 -7.61246,-0.43158 l -2.36246,-0.0316 -1.08961,-3.75 c -0.59928,-2.0625 -1.23134,-3.75 -1.40458,-3.75 -0.17323,0 -4.01213,1.2375 -8.53089,2.75 -4.51876,1.5125 -8.45831,2.75 -8.75455,2.75 -0.52879,0 -6.47206,-13.94005 -6.10133,-14.31079 0.1888,-0.1888 71.92114,20.75879 72.31141,21.1167 0.11304,0.10366 -0.0781,1.37099 -0.42487,2.81629 l -0.6304,2.6278 -2.57513,0.004 c -1.41632,0.002 -4.20082,0.1931 -6.18779,0.42451 l -3.61265,0.42073 -1.0405,-1.76352 z" id="path15284" transform="scale(0.26458333)" class="village-shape" fill="currentColor" stroke="none" />
    <path d="M 683.19328,480.54733 C 674.52397,470.24444 663.5,450.17776 663.5,444.7001 c 0,-3.19007 2.83094,-12.18939 3.844,-12.21977 0.3608,-0.0108 19.26076,5.0375 41.99992,11.21848 28.18551,7.66142 40.75706,11.48434 39.5,12.01167 -1.01416,0.42544 -15.11892,6.66898 -31.34392,13.87453 -16.225,7.20556 -30.00164,13.30895 -30.61475,13.56309 -0.61311,0.25414 -2.2745,-0.9162 -3.69197,-2.60077 z" id="path28621" transform="scale(0.26458333)" class="village-shape" fill="currentColor" stroke="none" />
    <path d="m 717,438.5518 c -23.375,-6.43936 -43.11374,-11.91488 -43.86386,-12.16782 -2.32091,-0.7826 3.55415,-6.69968 9.74734,-9.81705 7.84357,-3.9481 22.86379,-8.593 35.72641,-11.04815 24.63183,-4.70158 32.02578,-7.45758 37.14011,-13.84347 6.74089,-8.41686 3.20437,-20.23841 -7.44021,-24.87041 -6.12493,-2.66528 -20.95787,-5.30208 -29.89605,-5.31453 -8.84381,-0.0123 -30.58112,-2.44177 -40.91374,-4.57271 -13.14208,-2.71034 -28.87254,-9.05995 -34.2927,-13.84227 -2.58901,-2.28434 -6.63682,-5.64961 -8.99513,-7.47836 -6.00427,-4.65603 -8.35159,-9.77796 -8.95897,-19.54878 L 623.7529,305 l 11.87355,-4.4057 c 11.66776,-4.32934 18.25403,-0.17501 33.37355,1.87818 19.24559,2.6135 17.23573,3.91262 28.5,5.27495 l 24.5,-1.0089 0.5,3.00165 c 2.36743,14.21238 59.13909,14.12382 59.30909,14.27315 0.34917,0.30669 -6.48656,107.14002 -7.37068,115.19383 -0.56656,5.16104 -0.61901,5.22888 -5.91911,7.65534 -2.94111,1.34649 -6.17364,2.66169 -7.18339,2.92267 C 760.32616,450.04618 740.375,444.99115 717,438.5518 Z" id="path30123" transform="scale(0.26458333)" ns1:nodetypes="ssssssssssscssscssssss" class="village-shape" fill="currentColor" stroke="none" />
    <path d="m 783.25331,383.80798 c 2.08857,-31.73061 3.96855,-57.86317 4.17773,-58.07235 0.20918,-0.20918 5.03527,0.38307 10.72464,1.31611 l 10.34432,1.69644 48,-4.59261 c 26.4,-2.52593 66.675,-5.73654 89.5,-7.13468 22.825,-1.39813 43.79093,-2.78574 46.59096,-3.08356 l 5.09095,-0.5415 5.31049,-37.34263 5.3106,-37.34263 21.1841,18.87018 c 20.4492,18.21545 21.5455,19.38588 31.5985,33.73348 8.8878,12.68453 11.9923,16.22851 21.179,24.17664 5.9205,5.12233 10.6435,9.43437 10.4956,9.5823 -0.4595,0.45949 -73.314,22.72397 -138.96554,42.46812 l -62.70533,18.85812 -26.29467,12.62125 c -14.46206,6.94169 -39.50684,19.33933 -55.65507,27.5503 -16.14822,8.21097 -29.43314,14.92904 -29.52204,14.92904 -0.0889,0 1.54719,-25.96141 3.63576,-57.69202 z" id="path30162" transform="scale(0.26458333)" class="village-shape" fill="currentColor" stroke="none" />
    <path d="m 756,448.43563 c -16.65394,-3.75066 -83,-22.14139 -83,-23.00709 0,-1.13034 2.98271,-4.09039 6.41844,-6.36968 7.59603,-5.03925 23.38217,-10.1918 43.08156,-14.06169 19.15597,-3.76313 26.89666,-6.55109 31.70705,-11.41995 3.77563,-3.82151 5.01558,-6.60305 5.02261,-11.26706 0.009,-6.10441 -2.93039,-11.20957 -8.29717,-14.40967 -5.67544,-3.38413 -18.23359,-5.88975 -33.42154,-6.6683 -10.80143,-0.5537 -24.56863,-1.98615 -33.76095,-3.51276 -11.99885,-1.99271 -22.24772,-5.182 -32,-9.95791 -5.00466,-2.4509 -7.16123,-3.90932 -13,-8.79144 -8.10023,-6.77306 -10.36532,-9.50512 -11.72909,-14.1472 -1.12868,-3.84182 -2.7312,-16.62263 -2.26744,-18.0838 0.20004,-0.6303 0.0841,-0.98908 -0.31978,-0.98908 -1.42709,0 0.61933,-0.98649 6.59792,-3.18057 l 6.28161,-2.30528 10.71839,0.50372 c 10.31972,0.48498 11.43439,0.64429 29.96839,4.28319 l 19.25,3.77947 6.75,-0.29773 c 3.7125,-0.16375 9.28125,-0.42906 12.375,-0.58959 5.17251,-0.26838 5.625,-0.22015 5.625,0.5996 0,0.49031 0.44537,1.80625 0.9897,2.92433 3.24337,6.66193 18.93398,10.73033 47.5103,12.31888 5.9125,0.32868 10.84051,0.67678 10.95111,0.77357 0.34052,0.29795 -4.9381,84.63065 -6.72177,107.38894 -0.47216,6.02436 -1.05281,10.47665 -1.47207,11.28741 -0.48757,0.94285 -2.01231,1.95215 -5.15496,3.41228 -6.85209,3.18362 -6.27876,3.09894 -12.10231,1.78741 z" id="path47352" transform="scale(0.26458333)" class="village-shape" fill="currentColor" stroke="none" />
    <path d="m 771.25,323.42272 c -27.99276,-1.89824 -41.56578,-5.00025 -46.68828,-10.67025 -2.03956,-2.25754 -2.25093,-3.00247 -0.85192,-3.00247 0.77136,0 38.29393,8.93817 54.5402,12.9919 l 3.75,0.9357 -4.25,-0.0512 c -2.3375,-0.0281 -5.2625,-0.11981 -6.5,-0.20372 z" id="path49906" transform="scale(0.26458333)" class="village-shape" fill="currentColor" stroke="none" />
    <text class="village-label" x="220.13333" y="100.54166">3</text></g><g id="village-4" class="village-zone" data-village-id="4" tabindex="0" aria-label="หมู่ที่ 4" style="--village-fill:#15956f"><path d="M 168.64947,346.24152 C 168.33601,344.45868 164.89948,320.5 161.01275,293 l -7.0668,-50 -4.53405,-9.7675 -4.53406,-9.7675 2.4942,-12.31209 c 1.913,-9.44312 2.28233,-13.22564 1.58494,-16.2325 -0.5001,-2.15623 -0.92,-5.62341 -0.93312,-7.70485 L 148,183.43111 l 4.85398,0.64391 c 4.39667,0.58324 5.48707,0.28028 11.57368,-3.21556 L 171.14736,177 170.6081,173 c -0.29659,-2.2 -1.27583,-11.49869 -2.17609,-20.66375 l -1.63682,-16.66375 7.71281,-12.52549 7.71281,-12.52549 8.8965,-3.56076 c 4.89307,-1.95842 9.25645,-3.56076 9.6964,-3.56076 0.43995,0 2.27495,3.04906 4.07778,6.77569 3.94919,8.16339 4.15182,6.50558 -5.40538,44.22431 l -6.46121,25.5 28.73755,61.63348 28.73755,61.63347 22.72823,11.33829 c 12.50053,6.23606 22.40053,11.62098 22,11.96649 -0.94696,0.81689 -41.40297,8.28504 -86.22823,15.91768 -19.525,3.32462 -36.46313,6.25826 -37.6403,6.5192 -1.7695,0.39223 -2.23904,-0.0872 -2.71023,-2.76709 z" id="path35024" transform="scale(0.26458333)" class="village-shape" fill="currentColor" stroke="none" />
    <text class="village-label" x="48.683334" y="75.67083">4</text></g><g id="village-5" class="village-zone" data-village-id="5" tabindex="0" aria-label="หมู่ที่ 5" style="--village-fill:#15956f"><path d="M 634,413.99578 C 617.32693,409.31803 575.42252,396.75586 574.96476,396.29809 573.88421,395.21754 558.5,355.87745 558.5,354.19485 c 0,-3.38715 14.27257,-44.58547 15.62591,-45.10479 2.1792,-0.83624 29.25133,-4.04616 29.76792,-3.52956 0.26791,0.2679 0.94171,4.11274 1.49736,8.54408 1.31849,10.51522 4.24979,18.13794 9.08897,23.63554 8.75054,9.94114 27.95891,23.3485 39.79564,27.77718 9.19531,3.44041 18.2929,4.91862 49.49188,8.04159 36.02473,3.60603 37.12858,3.80461 37.55503,6.7559 0.45868,3.17443 -4.34106,5.04998 -28.32271,11.06738 -32.13142,8.06232 -39.82815,11.03828 -53.65226,20.74482 -5.1089,3.58719 -8.59877,5.35015 -10.5,5.30424 C 647.28148,417.39341 640.6,415.84745 634,413.99578 Z" id="path24673" transform="scale(0.26458333)" class="village-shape" fill="currentColor" stroke="none" />
    <path d="m 581.65352,413.87908 c -1.23476,-2.5415 -2.02199,-4.84394 -1.74941,-5.11652 0.27258,-0.27259 5.23954,0.78009 11.03769,2.33928 l 10.54207,2.83489 -8.24193,2.26611 c -4.53307,1.24636 -8.48977,2.27309 -8.79267,2.28163 -0.30291,0.009 -1.561,-2.06388 -2.79575,-4.60539 z" id="path28543" transform="scale(0.26458333)" class="village-shape" fill="currentColor" stroke="none" />
    <path d="m 637.55965,431.73279 c -0.79219,-0.23719 -1.91719,-0.86871 -2.5,-1.40336 -1.53656,-1.40962 -7.3725,-4.22202 -12.55468,-6.05024 -3.03438,-1.0705 -6.51888,-1.82254 -10.72323,-2.31435 -3.42551,-0.4007 -6.7071,-1.04234 -7.29243,-1.42586 -1.10467,-0.72381 -3.40022,-6.13052 -2.7686,-6.52088 0.19752,-0.12207 1.80366,0.20055 3.56921,0.71694 1.76554,0.51638 9.51008,2.7764 17.21008,5.02226 18.51396,5.39997 24.55601,7.37014 25.5012,8.31533 0.89333,0.89333 0.58539,2.58341 -0.64725,3.55237 -0.90767,0.71351 -7.52793,0.78637 -9.7943,0.10779 z" id="path28582" transform="scale(0.26458333)" class="village-shape" fill="currentColor" stroke="none" />
    <text class="village-label" x="157.95624" y="104.24583">5</text></g><g id="village-6" class="village-zone" data-village-id="6" tabindex="0" aria-label="หมู่ที่ 6" style="--village-fill:#15956f"><path d="m 486.74723,372.68781 c -24.33903,-6.92025 -43.91403,-12.90195 -43.5,-13.29267 0.41402,-0.39073 19.86333,-11.5079 43.22068,-24.70482 l 42.4679,-23.99442 8.84286,21.65205 c 4.86357,11.90863 8.89269,22.32705 8.9536,23.15205 0.0915,1.2391 -15.01247,30.24912 -15.55953,29.88504 -0.095,-0.0632 -20.08649,-5.77698 -44.42551,-12.69723 z" id="path15323" transform="scale(0.26458333)" class="village-shape" fill="currentColor" stroke="none" />
    <path d="m 550.25542,390.6563 -11.74458,-3.48348 3.34956,-6.08641 c 1.84227,-3.34752 4.61308,-8.4521 6.15737,-11.34349 l 2.8078,-5.25708 5.8397,14.24962 c 3.21183,7.8373 5.72608,14.50944 5.58721,14.82698 -0.13886,0.31754 -5.53754,-0.99022 -11.99706,-2.90614 z" id="path18564" transform="scale(0.26458333)" class="village-shape" fill="currentColor" stroke="none" />
    <path d="m 507.72087,437.91994 c 1.33699,-2.24052 27.02464,-43.94121 27.18071,-44.12449 0.0958,-0.1125 7.20884,1.86169 15.80675,4.38709 l 15.63257,4.59164 3.59435,8.61291 c 1.97689,4.7371 3.58769,9.07015 3.57955,9.62899 -0.008,0.55884 -14.3023,4.56539 -31.7648,8.90344 -17.4625,4.33805 -32.38632,8.11979 -33.16404,8.40386 -0.77773,0.28407 -1.16702,0.10253 -0.86509,-0.40344 z" id="path18603" transform="scale(0.26458333)" class="village-shape" fill="currentColor" stroke="none" />
    <path d="m 283.59024,512.86756 c -9.57537,-45.57716 -17.57078,-83.32521 -17.76758,-83.88456 -0.31031,-0.88199 67.95038,-11.28733 78.67734,-11.99321 6.74086,-0.44357 14.70468,-1.68924 16.02785,-2.507 1.06956,-0.66103 1.12216,-1.98457 0.26444,-6.65397 -0.58888,-3.20585 -0.91665,-5.99522 -0.72837,-6.19861 0.18828,-0.20338 4.30092,-1.18279 9.1392,-2.17646 8.30891,-1.70646 10.30372,-2.69829 35.96127,-17.88021 14.94041,-8.84045 27.99041,-16.06459 29,-16.05364 1.00958,0.0109 22.31061,5.82394 47.33561,12.91777 31.061,8.80486 45.40296,13.29442 45.19421,14.14746 -0.16818,0.68728 -6.8643,11.89868 -14.88026,24.91422 l -14.57447,23.66463 -27.11974,8.32813 c -14.91586,4.58047 -29.25724,8.96493 -31.86974,9.74323 -2.6125,0.77831 -4.75,1.81291 -4.75,2.29912 0,1.89817 5.53366,9.91319 7.61218,11.02558 2.75802,1.47605 3.49006,6.62575 1.61142,11.33586 -1.57252,3.9426 -5.20036,6.56344 -17.94629,12.96483 -6.75248,3.3913 -9.79649,5.58051 -12.08344,8.69028 -1.68139,2.28634 -5.27521,6.05035 -7.98627,8.36446 -4.6252,3.948 -27.89726,16.09363 -45.2076,23.59373 -19.97192,8.65329 -27.34654,14.68542 -33.87979,27.71228 -2.92244,5.82715 -3.12021,6.91259 -3.12021,17.125 V 593.25 l -3.01373,0.60275 c -1.65756,0.33151 -6.49506,0.89066 -10.75,1.24256 L 301,595.73512 Z" id="path18642" transform="scale(0.26458333)" class="village-shape" fill="currentColor" stroke="none" />
    <text class="village-label" x="104.24583" y="118.79791">6</text></g><g id="village-7" class="village-zone" data-village-id="7" tabindex="0" aria-label="หมู่ที่ 7" style="--village-fill:#15956f"><path d="m 636.3382,547.22895 c -6.03684,-10.79347 -51.82515,-122.6805 -50.64104,-123.74504 0.44156,-0.39697 3.56371,-1.6338 6.9381,-2.74852 l 6.13526,-2.02675 0.89912,3.14568 c 0.89292,3.12397 0.95537,3.14988 9.04686,3.75431 9.37627,0.7004 20.5173,4.74572 23.93311,8.69014 2.00271,2.31264 2.56873,2.43486 8.28244,1.78843 6.12159,-0.69258 6.13171,-0.68942 5.52522,1.72703 -1.60814,6.40735 5.30423,24.93817 14.8669,39.85546 4.81038,7.50394 23.91101,28.34835 29.5467,32.24414 2.45546,1.69739 5.54486,3.98946 6.86532,5.09348 l 2.40084,2.00731 -28.98223,19.74269 c -15.94023,10.85848 -29.13356,19.73322 -29.31852,19.72164 -0.18495,-0.0116 -2.65909,-4.17408 -5.49808,-9.25 z" id="path9792" transform="scale(0.26458333)" class="village-shape" fill="currentColor" stroke="none" />
    <path d="m 390.5,640.70402 c -3.025,-1.47086 -5.6329,-2.73887 -5.79533,-2.81781 -0.16243,-0.0789 26.73208,-43.96063 59.76559,-97.51487 L 504.53117,443 l 35.14228,-8.79214 c 19.32825,-4.83567 35.487,-8.43567 35.90833,-8 0.9883,1.02196 36.13228,87.41141 35.72529,87.81841 -0.169,0.16899 -4.77606,2.38137 -10.23792,4.91639 -15.6289,7.25387 -52.06745,17.50779 -92.56915,26.04926 -19.525,4.11765 -36.46634,7.71345 -37.64741,7.99067 -1.61267,0.37851 -7.93625,10.77761 -25.39424,41.76071 -12.78576,22.69119 -23.79096,41.84966 -24.456,42.5744 -1.3573,1.47911 -18.63723,6.16449 -22.50235,6.10141 -1.375,-0.0224 -4.975,-1.24423 -8,-2.71509 z" id="path12774" transform="scale(0.26458333)" class="village-shape" fill="currentColor" stroke="none" />
    <path d="m 360.19199,619.14371 c -9.68177,-7.9536 -21.48604,-17.28216 -26.23172,-20.73012 l -8.6285,-6.26903 0.69181,-10.57228 c 0.60459,-9.23939 1.08065,-11.26569 3.77608,-16.07228 6.18632,-11.0317 9.82918,-14.2103 24.10434,-21.03237 45.35515,-21.67514 49.23812,-23.75824 55.35641,-29.69704 3.26974,-3.17383 6.57377,-6.72131 7.34229,-7.8833 0.76851,-1.162 4.7723,-3.79351 8.8973,-5.84782 13.80441,-6.87478 18.73694,-10.56214 20.57822,-15.38345 2.63436,-6.89797 1.54649,-12.29857 -3.45511,-17.15245 -2.26771,-2.20074 -4.12311,-4.34252 -4.12311,-4.7595 0,-0.81569 54.00044,-17.57696 54.62292,-16.95449 0.38728,0.38729 -112.78183,184.26933 -114.40874,185.89624 -0.55865,0.55865 -7.82129,-4.75128 -18.52219,-13.54211 z" id="path12813" transform="scale(0.26458333)" class="village-shape" fill="currentColor" stroke="none" />
    <text class="village-label" x="133.34999" y="135.99583">7</text></g><g id="village-8" class="village-zone" data-village-id="8" tabindex="0" aria-label="หมู่ที่ 8" style="--village-fill:#15956f"><path d="M 576.64625,971.06933 C 566.55169,964.31378 551.45524,954.63452 543.09858,949.55987 530.89155,942.14703 527.392,939.51413 525.29679,936.16661 L 522.68891,932 l 2.96075,-17.49629 2.96075,-17.49629 35.17751,-63.32776 35.17752,-63.32775 12.74109,-7.17595 c 7.35395,-4.14185 12.75312,-7.81019 12.76953,-8.67596 0.0156,-0.825 -7.39563,-26.54219 -16.4695,-57.14931 l -16.49793,-55.64931 -22.65111,-50.12056 c -12.45811,-27.56631 -22.41216,-50.35951 -22.1201,-50.65157 0.29205,-0.29205 10.9319,-3.62891 23.64411,-7.41524 13.45693,-4.00814 27.14835,-8.79575 32.77192,-11.45966 5.31235,-2.51648 9.78423,-4.45 9.93753,-4.29671 0.15329,0.1533 2.67053,6.15205 5.59387,13.33057 3.60998,8.86465 10.55945,22.06595 21.66207,41.14955 l 16.34691,28.0977 6.65309,4.3874 c 5.93511,3.91393 13.5057,6.5814 70.15308,24.71818 34.925,11.18194 63.83935,20.63148 64.25411,20.99898 0.41476,0.36751 -14.52676,17.00029 -33.20337,36.96173 -31.29819,33.45131 -33.99984,36.61872 -34.49835,40.4459 -0.29748,2.28379 -1.26425,12.92735 -2.14838,23.65235 -1.21985,14.79754 -2.80311,25.28764 -6.5654,43.5 l -4.9579,24 -9.31135,9.5 c -5.12124,5.225 -24.91918,25.7 -43.99542,45.5 l -34.68408,36 -11.19493,5.18111 L 606,920.36223 599.61704,931.18111 593.23408,942 l 1.64658,19.5 c 1.8822,22.29039 1.87167,22.02487 0.86934,21.92608 -0.4125,-0.0407 -9.00919,-5.60119 -19.10375,-12.35675 z" id="path9636" transform="scale(0.26458333)" class="village-shape" fill="currentColor" stroke="none" />
    <path d="m 739.91191,622.12815 c -53.38857,-17.19827 -66.60832,-21.80571 -71.07313,-24.77093 -4.99663,-3.31841 -6.35382,-5.13225 -15.24176,-20.37015 -5.3662,-9.20005 -9.38329,-17.06113 -8.92687,-17.46907 0.45642,-0.40794 13.55867,-9.39543 29.11612,-19.9722 24.82951,-16.8804 28.4957,-19.06991 30,-17.91648 0.94255,0.7227 3.54916,2.95248 5.79246,4.95507 6.2274,5.55917 24.8392,17.74315 32.80862,21.47775 3.91196,1.83321 15.21265,5.91264 25.11265,9.06541 l 18,5.73231 16.65217,0.41898 16.65216,0.41898 13.08605,-4.12568 c 7.19733,-2.26913 14.55385,-4.97571 16.34783,-6.01463 4.43998,-2.57125 13.29262,-5.05751 18.00791,-5.05751 3.73522,0 13.75388,3.56273 13.75388,4.89101 0,0.3546 -1.2265,2.43668 -2.72556,4.62686 -1.49906,2.19017 -7.68656,13.14135 -13.75,24.33596 L 852.5,602.70766 l -11,4.45036 -11,4.45036 -11.21596,14.19581 c -6.16878,7.8077 -11.79378,14.92848 -12.5,15.82396 -1.15994,1.47079 -7.62291,-0.41382 -66.87213,-19.5 z" id="path6401" transform="scale(0.26458333)" class="village-shape" fill="currentColor" stroke="none" />
  <text class="village-label" x="175.68333" y="188.38333">8</text></g><g id="village-9" class="village-zone" data-village-id="9" tabindex="0" aria-label="หมู่ที่ 9" style="--village-fill:#15956f"><path d="m 325.96091,824.9936 -5.5391,-4.29618 -1.75201,-8.84871 c -1.60898,-8.12628 -1.62853,-9.53073 -0.23939,-17.20249 l 1.51262,-8.35379 -13.31035,-19.14621 C 299.31198,756.6158 289.7623,742.96674 285.41116,736.81497 L 277.5,725.62995 l -10,-3.69585 c -5.5,-2.03272 -12.27668,-4.53718 -15.05928,-5.56547 -4.70771,-1.73969 -5.17119,-2.21955 -6.66964,-6.9053 l -1.61035,-5.03569 6.03325,-6.99253 6.03324,-6.99253 -4.30122,-9.37676 -4.30122,-9.37676 -9.07749,-3.5928 -9.07749,-3.5928 -18.59566,-18.83636 -18.59566,-18.83637 2.61076,-3.84158 c 2.51143,-3.69542 3.01025,-3.92712 13.11076,-6.08981 5.775,-1.23652 29.175,-5.28001 52,-8.98553 22.825,-3.70551 41.76256,-7.13232 42.08347,-7.61512 0.32091,-0.4828 5.71081,-1.4625 11.97757,-2.17711 l 11.3941,-1.29929 7.52243,5.54573 c 9.58331,7.06507 42.42019,34.01909 42.83859,35.16389 0.78757,2.15488 -14.1006,45.70861 -23.53993,68.86353 L 341.83829,732 l -3.41851,27 c -1.88017,14.85 -4.1106,36.65431 -4.9565,48.45403 -0.8459,11.79971 -1.63369,21.53991 -1.75064,21.64489 -0.11695,0.10498 -2.70523,-1.74241 -5.75173,-4.10532 z" id="path359" transform="scale(0.26458333)" class="village-shape" fill="currentColor" stroke="none" />
    <path d="m 503.6515,921.47076 c -12.47769,-4.84312 -17.71486,-6.31583 -28,-7.87366 C 463.94483,911.82396 461.4317,911.01416 442,902.75362 l -21,-8.92723 -0.29593,-6.67375 -0.29593,-6.67376 -7.20407,-3.61494 c -10.90292,-5.47101 -12.1415,-6.64434 -17.54917,-16.62472 -3.15118,-5.8158 -7.0422,-11.23546 -10.50119,-14.62674 l -5.49509,-5.38751 -10.32931,0.52917 c -8.09935,0.41493 -12.16435,0.10961 -18.82931,-1.41428 -13.12381,-3.00065 -12.25643,-0.81247 -10.48434,-26.44918 0.83223,-12.03988 3.06905,-34.50212 4.97072,-49.91609 l 3.45758,-28.02542 10.14781,-24.97458 c 5.58129,-13.73603 13.2113,-34.57949 16.95558,-46.31882 3.74428,-11.73933 7.01232,-21.54878 7.26232,-21.79878 0.25,-0.25 3.69546,0.99458 7.65656,2.76573 l 7.20201,3.22028 12.02171,-2.88864 c 6.61194,-1.58876 12.60247,-3.35343 13.31228,-3.9215 0.70981,-0.56807 11.52533,-19.25786 24.03449,-41.53286 12.50917,-22.275 23.27057,-41.07371 23.91424,-41.77492 0.96884,-1.05544 70.5463,-16.56116 71.23283,-15.87462 0.12048,0.12047 10.56383,23.15341 23.20744,51.18429 L 588.37963,644 l 16.06019,54.24746 c 8.8331,29.8361 16.05341,54.5861 16.04514,55 -0.008,0.4139 -5.52076,3.82853 -12.25,7.58806 L 596,767.67105 l -35.29546,63.65092 -35.29546,63.65093 -2.67183,16.26355 c -1.4695,8.94495 -2.91154,16.24739 -3.20453,16.22764 -0.293,-0.0197 -7.43955,-2.71675 -15.88122,-5.99333 z" id="path5801" transform="scale(0.26458333)" class="village-shape" fill="currentColor" stroke="none" />
    <text class="village-label" x="118.79791" y="200.02499">9</text></g><g id="village-10" class="village-zone" data-village-id="10" tabindex="0" aria-label="หมู่ที่ 10" style="--village-fill:#15956f"><path d="M 173.5,610.41488 158,596.34094 148.81186,580.17047 139.62372,564 131.81186,559.47893 124,554.95786 l -2.61728,-7.97893 c -2.40206,-7.32283 -2.51053,-8.34896 -1.31913,-12.47893 5.22608,-18.11611 15.2092,-56.08538 19.45656,-74 4.46987,-18.85313 5.95678,-23.39673 12.07788,-36.90677 6.70756,-14.80442 7.19726,-16.4269 12.52571,-41.5 3.04988,-14.35127 5.61972,-26.14491 5.71075,-26.20808 0.20817,-0.14445 129.68441,-24.47607 131.49961,-24.71185 0.81749,-0.10619 9.42964,15.72915 22.23963,40.89246 l 20.90553,41.06577 -41.23963,5.85097 c -22.6818,3.21803 -41.37827,5.95208 -41.54773,6.07566 -0.16945,0.12359 7.87003,38.99657 17.86552,86.38442 9.99548,47.38785 18.00912,86.30012 17.80809,86.47171 -0.20103,0.17159 -16.11551,2.86222 -35.36551,5.97918 -19.25,3.11695 -42.25453,7.09335 -51.12117,8.83644 l -16.12117,3.16924 -2.72066,4.30043 c -1.49636,2.36523 -2.79183,4.2979 -2.87882,4.29483 -0.087,-0.003 -7.13318,-6.33887 -15.65818,-14.07953 z" id="path38715" transform="scale(0.26458333)" class="village-shape" fill="currentColor" stroke="none" />
    <text class="village-label" x="49.212502" y="130.43958">10</text></g><g id="village-11" class="village-zone" data-village-id="11" tabindex="0" aria-label="หมู่ที่ 11" style="--village-fill:#15956f"><path d="m 327.61001,371.72798 c -11.39544,-22.79878 -20.47594,-41.69538 -20.17889,-41.99244 0.29706,-0.29705 3.35908,0.34491 6.80449,1.42659 3.44541,1.08167 30.22567,8.6877 59.51167,16.90228 29.286,8.21457 53.24851,15.21636 53.25,15.55951 0.001,0.34316 -11.45265,7.39719 -25.45365,15.67563 -24.61328,14.55321 -25.77375,15.1162 -35.03971,16.99912 -5.27083,1.07108 -9.86568,2.22975 -10.21075,2.57483 -0.34508,0.34508 -0.15207,3.21471 0.42891,6.37696 0.58098,3.16225 0.9567,5.86152 0.83494,5.99839 -0.12177,0.13687 -2.24788,0.62745 -4.72471,1.09017 l -4.50331,0.84131 z" id="path43479" transform="scale(0.26458333)" class="village-shape" fill="currentColor" stroke="none" />
    <path d="m 380.76229,342.75599 c -30.38074,-8.58765 -55.03008,-15.82153 -54.77631,-16.0753 0.25377,-0.25377 36.77281,-7.33721 81.15344,-15.74098 l 80.69204,-15.27959 5.18082,4.22027 c 4.61355,3.75817 6.3747,4.47324 16.08427,6.5306 5.9969,1.27068 11.44881,2.60632 12.11535,2.9681 0.95409,0.51784 -83.46398,49.31658 -84.86286,49.05585 -0.19197,-0.0358 -25.20601,-7.09131 -55.58675,-15.67895 z" id="path46535" transform="scale(0.26458333)" class="village-shape" fill="currentColor" stroke="none" />
    <path d="M 278.0263,312.72486 253.05259,300 225.28513,240.5 c -15.2721,-32.725 -27.77143,-60.27051 -27.77629,-61.21224 -0.005,-0.94173 2.87253,-13.31673 6.3942,-27.5 8.53239,-34.36353 8.63177,-35.29484 4.61552,-43.25099 -1.74453,-3.4559 -2.79988,-6.60234 -2.34522,-6.99209 0.45466,-0.38975 3.16537,-1.649426 6.0238,-2.799274 4.97191,-2.000032 6.44536,-2.067864 34,-1.565236 L 275,97.705567 308.25,114.03926 c 25.26263,12.40999 33.25767,16.76934 33.28192,18.14722 0.0176,0.99744 0.87887,10.26383 1.91403,20.592 1.80687,18.02779 2.01396,18.98721 5.18051,24 4.79803,7.59551 44.9789,68.0691 45.88921,69.06484 0.42403,0.46382 8.58147,3.0868 18.12765,5.82883 15.80838,4.54078 19.04166,5.88567 36.2456,15.07646 14.83408,7.92474 20.5728,11.59659 26.73301,17.10482 4.31425,3.85764 7.72967,7.1283 7.58983,7.26814 -0.13983,0.13984 -39.84469,7.7391 -88.233,16.88724 C 346.59044,317.15695 306.1,324.82358 305,325.04576 c -1.1924,0.24084 -12.08441,-4.73435 -26.9737,-12.3209 z" id="path46574" transform="scale(0.26458333)" class="village-shape" fill="currentColor" stroke="none" />
    <text class="village-label" x="76.993744" y="70.379166">11</text></g><path d="m 73.024999,25.4 17.727083,8.73125 1.058334,11.112499 12.964584,19.579167 9.26042,2.645833 10.31875,5.55625 7.40833,6.879167 9.26041,2.116666 19.57917,-2.116666 4.89479,0.926041 2.91042,-1.455208 15.74271,2.38125 7.40833,-0.264584 16.40417,3.968751 5.55625,1.058333 25.13541,-2.38125 24.87084,-1.5875 2.91041,-20.372916 11.90625,10.583333 5.55625,7.9375 5.82084,5.027083 17.4625,3.96875 15.08125,5.55625 9.26041,6.614581 -13.75833,2.64584 -14.81667,-2.38125 -12.96458,-4.762505 h -5.02708 l -17.72709,11.377085 0.79375,5.02708 7.67292,9.525 -9.525,3.175 -24.87083,16.13958 -6.61459,2.11667 -3.175,4.7625 -5.55625,10.31875 -5.82083,2.38125 -7.14375,8.99583 -19.31458,20.6375 -1.05834,12.43542 -2.64583,12.7 -23.54792,24.34167 -5.82083,2.64583 -3.175,5.55625 1.05833,11.90625 -11.64166,-7.67292 -7.40834,-4.49791 -2.38125,-3.43959 -8.20208,-3.175 -6.08541,-0.79375 -11.90625,-5.02708 v -3.43958 l -5.02709,-2.64584 -2.91041,-5.29166 -2.64584,-2.64584 -5.556248,0.26459 -4.497916,-1.05834 -5.820834,-4.49791 -1.058333,-4.7625 0.79375,-4.49792 -5.291667,-7.67292 -5.820833,-8.20208 -7.9375,-2.91042 -1.058333,-3.175 3.175,-3.70416 -2.116667,-4.49792 -4.7625,-1.85208 -7.14375,-7.40834 L 41.274999,157.95625 36.5125,149.48958 32.279166,147.10833 30.95625,142.61041 35.189583,127 l 2.645833,-11.1125 3.704167,-8.20208 2.910416,-13.758338 -4.233333,-29.633333 -2.38125,-5.027083 1.322917,-6.614583 -0.529167,-2.38125 v -2.38125 l 2.910417,0.529166 3.175,-1.852083 -1.058334,-10.847916 4.233334,-6.879167 9.525,-3.704167 z" id="path20456" ns1:nodetypes="ccccccccccccccccccccccccccccccccccccccccccccccccccccccccccccccccccccccccccccccccccccccc" class="boundary-line" />
    <path d="m 215.9,145.25625 5.95312,-9.92188 8.06979,-9.3927 3.175,-3.96875 2.11667,-1.32292 3.43958,-0.52917 3.70417,-0.26458 4.49792,0.39687 1.85208,0.26459 8.20208,-4.36563 4.10105,-2.64583 6.74687,1.5875" id="path196" class="boundary-line" />
    <path d="m 181.76875,128.32292 23.28333,-10.31875 15.61042,-7.9375 15.34583,-7.40834 26.45833,-7.937498 28.575,-8.73125" id="path3898" class="boundary-line" />
    <path d="m 44.979166,92.868749 35.454166,-6.085417 -13.758333,-6.879166 -15.08125,-32.279167 3.439584,-13.758333 0.529166,-3.175 -2.116666,-4.233333" id="path6842" class="boundary-line" />
    <path d="m 50.270833,165.89375 1.5875,-2.51354 6.482291,-1.32292 21.034375,-3.43958 -9.657292,-45.77292 22.092709,-3.175 -11.509375,-22.886458" id="path9357" class="boundary-line" />
    <path d="m 139.96458,81.623957 -24.34166,13.758333 -15.875005,9.39271 -5.159375,1.05833 0.661459,3.43959 -3.836458,0.66145" id="path12763" class="boundary-line" />
    <path d="m 100.40937,168.67187 -6.746871,-5.55625 -3.571875,-2.91041 -4.365625,-3.175 0.132292,-5.82084 1.719791,-3.30729 2.248959,-2.51354 4.101041,-2.11667 3.571875,-1.5875 4.762503,-2.24896 4.23333,-2.24895 2.38125,-2.11667 1.45521,-1.98438 4.49792,-2.24895 2.38125,-1.5875 0.79375,-2.11667 -0.26459,-1.98437 -1.32291,-0.92605 -1.19063,-1.98437 16.40417,-5.02708 21.43125,-5.42396" id="path14816" class="boundary-line" />
    <path d="m 153.59062,111.91875 5.15938,-1.71979 0.52916,1.85208 4.10105,0.26458 4.10104,1.7198 0.66146,1.05833 3.30729,-0.39688" id="path17760" class="boundary-line" />
    <path d="m 100.93854,168.93646 4.36563,1.98437 6.35,-1.5875 12.7,-22.48958 19.97604,-4.23334 12.43541,-3.70416 5.95313,-2.77813" id="path20176" ns1:nodetypes="ccccccc" class="boundary-line" />
    <path d="m 185.7375,137.05416 -16.27188,11.1125" id="path23912" class="boundary-line" />
    <path d="m 143.80104,142.875 12.30312,27.25208 8.73125,29.50104 -6.74687,3.83646 -18.65313,33.60208 -1.5875,9.525" id="path26460" class="boundary-line" />
    <path d="m 79.110416,158.22083 7.14375,-0.79375" id="path28744" class="boundary-line" />
    </svg>