<?xml version="1.0" encoding="UTF-8" standalone="no"?>
<!-- Created with Inkscape (http://www.inkscape.org/) -->

<svg
   width="360mm"
   height="300mm"
   viewBox="0 0 360 300"
   version="1.1"
   id="svg5"
   inkscape:version="1.1 (c68e22c387, 2021-05-23)"
   sodipodi:docname="Tha Pho subdistrict, Phitsanulok.svg"
   xmlns:inkscape="http://www.inkscape.org/namespaces/inkscape"
   xmlns:sodipodi="http://sodipodi.sourceforge.net/DTD/sodipodi-0.dtd"
   xmlns="http://www.w3.org/2000/svg"
   xmlns:svg="http://www.w3.org/2000/svg">
  <sodipodi:namedview
     id="namedview7"
     pagecolor="#ffffff"
     bordercolor="#999999"
     borderopacity="1"
     inkscape:pageshadow="0"
     inkscape:pageopacity="0"
     inkscape:pagecheckerboard="0"
     inkscape:document-units="mm"
     showgrid="false"
     width="360mm"
     inkscape:zoom="1"
     inkscape:cx="689.5"
     inkscape:cy="439.5"
     inkscape:window-width="1440"
     inkscape:window-height="837"
     inkscape:window-x="-8"
     inkscape:window-y="32"
     inkscape:window-maximized="1"
     inkscape:current-layer="layer3"
     inkscape:snap-global="false"
     inkscape:showpageshadow="false"
     showborder="false" />
  <defs
     id="defs2" />
  <g
     inkscape:groupmode="layer"
     id="layer2"
     inkscape:label="OUTER AREA"
     style="display:inline"
     sodipodi:insensitive="true">
    <path
       style="opacity:1;fill:#e0e0e0;fill-opacity:1;stroke:#000000;stroke-width:0;stroke-miterlimit:4;stroke-dasharray:none;stroke-opacity:1"
       d="m 526.69994,280.79068 c -0.2576,-0.43488 -1.92005,-4.29639 -3.69432,-8.58115 -2.83973,-6.85778 -3.14267,-8.45702 -2.53035,-13.35792 0.53676,-4.29605 1.41827,-6.34734 3.86017,-8.98262 1.74051,-1.87835 30.15568,-28.04229 63.14484,-58.14209 L 647.46055,137 674.19153,95 C 688.89356,71.9 701.13945,52.55 701.40461,52 701.90951,50.952743 719,68.086683 719,69.640123 c 0,0.491255 -2.43775,5.723195 -5.41721,11.626534 -5.30336,10.507754 -6.60601,12.087648 -61.97892,75.170093 -38.40978,43.75755 -56.96963,65.62987 -57.83279,68.1545 -1.01062,2.95592 -6.80084,8.67573 -28.25679,27.91317 -14.84214,13.30749 -28.56714,24.99273 -30.5,25.9672 -4.84493,2.44262 -7.75958,3.25558 -8.31435,2.31906 z"
       id="path92521"
       transform="scale(0.26458333)" />
    <path
       style="opacity:1;fill:#e0e0e0;fill-opacity:1;stroke:#000000;stroke-width:0;stroke-miterlimit:4;stroke-dasharray:none;stroke-opacity:1"
       d="m 533.21988,297.32455 c -2.31127,-5.5965 -4.09376,-10.27486 -3.96109,-10.39635 0.13266,-0.12149 3.02664,-1.50504 6.43105,-3.07454 4.7788,-2.20314 11.44662,-7.59033 29.25,-23.63219 12.68309,-11.4282 23.06379,-20.4282 23.06823,-20 0.014,1.35447 -21.29306,62.73735 -22.0962,63.65616 -0.66169,0.757 -20.59025,3.45328 -26.45077,3.57873 -1.65523,0.0354 -2.8297,-1.87117 -6.24122,-10.13181 z"
       id="path95096"
       transform="scale(0.26458333)" />
    <path
       style="opacity:1;fill:#e0e0e0;fill-opacity:1;stroke:#000000;stroke-width:0;stroke-miterlimit:4;stroke-dasharray:none;stroke-opacity:1"
       d="m 523.5,305.99015 c -0.55,-0.19357 -6.175,-1.53148 -12.5,-2.97311 -8.63612,-1.96841 -12.34834,-3.31844 -14.90653,-5.4211 l -3.40653,-2.79992 13.80358,-2.66763 c 7.59197,-1.46719 13.88985,-2.5463 13.9953,-2.39801 0.10544,0.14829 1.43953,3.41962 2.96463,7.26962 1.5251,3.85 2.9958,7.5625 3.26822,8.25 0.46793,1.18091 -1.00438,1.51948 -3.21867,0.74015 z"
       id="path95135"
       transform="scale(0.26458333)" />
    <path
       style="opacity:1;fill:#e0e0e0;fill-opacity:1;stroke:#000000;stroke-width:0;stroke-miterlimit:4;stroke-dasharray:none;stroke-opacity:1"
       d="m 551.40737,342 c -0.4227,-1.1 -3.35341,-8.3 -6.51268,-16 -3.15928,-7.7 -5.44051,-14.27806 -5.06941,-14.61791 0.81751,-0.74867 23.35106,-3.03908 23.95523,-2.43491 0.4263,0.42629 -4.68261,16.26531 -9.20976,28.55282 -1.94275,5.27298 -2.53991,6.12246 -3.16338,4.5 z"
       id="path95174"
       transform="scale(0.26458333)" />
    <path
       style="opacity:1;fill:#e0e0e0;fill-opacity:1;stroke:#000000;stroke-width:0;stroke-miterlimit:4;stroke-dasharray:none;stroke-opacity:1"
       d="m 574.26263,302.25 c 0.26213,-0.6875 5.76226,-16.55 12.22251,-35.25 6.46025,-18.7 12.32074,-35.35 13.02332,-37 0.70258,-1.65 1.50975,-3.675 1.79372,-4.5 0.28396,-0.825 25.9388,-30.45793 57.01074,-65.85097 C 714.49016,95.659375 714.83639,95.238277 719.9791,84.649034 722.82356,78.792065 726.61135,71.75 728.39642,69 730.1815,66.25 740.79539,49.9375 751.98285,32.75 L 772.32368,1.5 h 10.74454 c 9.99562,0 10.71052,0.1300853 10.25649,1.8662923 -0.53696,2.0533698 2.3323,2.6585589 24.92529,5.2572739 L 829,9.8600643 V 23.023482 c 0,10.682433 0.38634,14.276658 2.04983,19.069968 2.83148,8.158836 4.56714,16.788411 6.91308,34.371264 l 2.00739,15.045419 -2.37137,5.362078 c -2.16676,4.899439 -3.03923,5.730749 -10.11206,9.635039 l -7.74069,4.27295 -16.62309,-1.19286 c -9.1427,-0.65608 -25.49131,-2.06912 -36.33025,-3.1401 -22.74072,-2.24698 -39.39299,-2.43485 -49.1127,-0.55408 -6.0067,1.16229 -7.3978,1.88889 -11.66697,6.09387 -7.06269,6.95649 -7.27352,10.47411 -2.09855,35.01297 4.22847,20.05071 7.2459,29.96733 13.84471,45.5 4.31638,10.16015 9.87891,27.98013 13.20047,42.28873 3.95869,17.05315 2.11518,34.62601 -4.8826,46.54251 -3.35192,5.70798 -4.79185,7.13699 -9.99447,9.91876 -8.3514,4.46537 -17.63992,4.58899 -28.3067,0.37673 -14.01859,-5.53589 -26.41086,-7.63897 -44.31986,-7.52148 -18.9595,0.12437 -20.48247,0.62487 -30.41622,9.99587 l -6.54941,6.17838 -14.75035,1.61025 c -17.72818,1.93533 -18.08089,1.9426 -17.47756,0.36025 z m 77.38254,-80.10271 c 5.97147,-5.97739 31.69879,-36.45485 32.46804,-38.46276 1.29114,-3.37019 0.0157,-5.07805 -10.18261,-13.63458 -9.78538,-8.21011 -11.189,-8.58834 -15.57577,-4.19724 -5.97147,5.97739 -31.69879,36.45485 -32.46804,38.46276 -1.29114,3.37019 -0.0157,5.07805 10.18261,13.63458 9.78538,8.21011 11.189,8.58834 15.57577,4.19724 z"
       id="path95213"
       transform="scale(0.26458333)" />
    <path
       style="opacity:1;fill:#e0e0e0;fill-opacity:1;stroke:#000000;stroke-width:0;stroke-miterlimit:4;stroke-dasharray:none;stroke-opacity:1"
       d="M 714.85246,53.77554 706.20491,44.399393 719.81973,22.949697 733.43456,1.5 h 14.78272 C 756.34777,1.5 763,1.7531945 763,2.0626545 c 0,0.4067816 -38.80703,60.4810485 -39.41355,61.0131885 -0.0476,0.04171 -3.97784,-4.143423 -8.73399,-9.300303 z"
       id="path95252"
       transform="scale(0.26458333)" />
    <path
       style="opacity:1;fill:#e0e0e0;fill-opacity:1;stroke:#000000;stroke-width:0;stroke-miterlimit:4;stroke-dasharray:none;stroke-opacity:1"
       d="M 685.53247,19.25 671.86995,2 696.58385,1.7322054 c 13.59264,-0.1472871 24.90527,-0.076416 25.13918,0.1574919 0.53672,0.5367217 -20.991,34.5869707 -21.87554,34.6003977 -0.35888,0.0054 -6.80064,-7.752595 -14.31502,-17.240095 z"
       id="path95291"
       transform="scale(0.26458333)" />
    <path
       style="opacity:1;fill:#e0e0e0;fill-opacity:1;stroke:#000000;stroke-width:0;stroke-miterlimit:4;stroke-dasharray:none;stroke-opacity:1"
       d="M 1,192.07946 V 1.5 L 331.75,1.5498893 662.5,1.5997786 679,22.551616 c 9.075,11.523511 16.40122,21.288561 16.28048,21.700111 C 695.15975,44.663277 682.78982,64.35 667.79174,88 l -27.26922,43 -62.32346,56.88012 c -34.27791,31.28406 -63.04027,57.9741 -63.91637,59.3112 -1.07959,1.64765 -1.73207,5.55336 -2.02472,12.11988 -0.40436,9.07273 -0.23499,10.15985 2.66361,17.09696 1.70249,4.07449 2.83508,7.66851 2.51687,7.98672 -0.3182,0.31821 -6.95953,1.79308 -14.7585,3.2775 L 488.5,290.37133 485,287.19903 c -1.925,-1.74476 -5.75,-5.28544 -8.5,-7.86818 -3.28912,-3.08906 -11.75951,-8.33658 -24.75446,-15.33572 -18.28354,-9.84759 -21.0334,-11.0053 -36.9305,-15.54798 -9.44682,-2.69948 -17.50412,-5.25443 -17.90511,-5.67765 -0.40099,-0.42323 -11.40215,-16.95122 -24.44701,-36.72887 L 348.74498,170.08125 346.71444,148.8787 344.6839,127.67616 310.81677,111.02691 276.94963,94.377665 246.6764,93.784973 216.40316,93.19228 l -18.45158,7.23324 -18.45158,7.23323 -8.19139,13.36781 -8.19139,13.36781 1.93476,19.30282 c 1.06411,10.61654 1.93774,19.77049 1.94139,20.34209 0.004,0.57161 -2.35587,2.38485 -5.24337,4.02943 -4.02388,2.29179 -5.95064,2.83573 -8.25,2.32903 -1.65,-0.36361 -4.4625,-0.71435 -6.25,-0.77943 -3.24496,-0.11813 -3.25,-0.11063 -3.25,4.83247 0,2.72293 0.48307,7.20325 1.07348,9.95626 0.91144,4.24988 0.69037,6.89669 -1.46447,17.53358 l -2.53796,12.52809 4.55393,9.41947 4.55392,9.41947 7.72855,54.05669 7.72856,54.0567 -2.56801,0.52435 c -1.4124,0.2884 -37.218,7.06224 -79.568,15.05298 -42.35,7.99073 -78.2375,14.7833 -79.75,15.09458 L 1,382.65891 Z M 57.38718,369.42732 C 79.638114,365.50651 85,363.90727 85,361.1915 c 0,-3.32671 -4.30634,-24.34299 -5.213091,-25.4415 -1.62784,-1.97209 -5.714201,-1.59035 -31.163612,2.91122 -15.286688,2.70396 -24.603992,4.81231 -25.898268,5.86035 l -2.021567,1.63697 2.22835,12.41476 c 1.225593,6.82812 2.697414,12.97994 3.270714,13.67073 1.639276,1.97521 6.462426,1.53956 31.184654,-2.81671 z"
       id="path95330"
       transform="scale(0.26458333)" />
    <path
       style="opacity:1;fill:#e0e0e0;fill-opacity:1;stroke:#000000;stroke-width:0;stroke-miterlimit:4;stroke-dasharray:none;stroke-opacity:1"
       d="m 754.2303,313.46585 c -14.99834,-3.66955 -27.47592,-6.87814 -27.72798,-7.13019 -0.25205,-0.25205 1.81101,-2.18886 4.58458,-4.30401 6.12772,-4.67306 9.26376,-10.52643 14.28966,-26.67143 C 748.70442,264.66994 749,262.7284 749,251.55935 c 0,-10.59992 -0.45233,-13.95728 -3.52356,-26.15289 -1.93795,-7.69549 -5.70601,-19.4851 -8.37346,-26.19913 -4.78015,-12.03176 -17.35701,-49.44055 -20.60255,-61.28054 l -1.66477,-6.0732 2.76365,-4.5754 c 2.24334,-3.71402 3.43547,-4.68655 6.33216,-5.16579 1.96269,-0.32471 25.77944,-0.59534 52.9261,-0.60139 l 49.35758,-0.011 10.53408,-4.72873 10.53409,-4.72872 5.27255,-8.17313 c 4.91996,-7.62655 5.34811,-8.794525 6.40235,-17.465053 C 860.37804,74.727058 859.0258,61.869149 854.97189,48.5 851.44714,36.875936 849.78758,25.158695 850.63943,17.910809 l 0.63968,-5.44267 4.61044,0.546063 c 2.53575,0.300335 10.83071,1.206377 18.43325,2.013427 l 13.82279,1.467364 9.41632,5.619215 c 9.27352,5.533998 9.65502,5.916963 25.15585,25.252504 L 938.45728,67 l 5.2253,18.349152 c 2.87391,10.092034 5.35853,19.313578 5.52136,20.492328 0.28051,2.03065 -3.43209,3.10768 -70.70394,20.51144 -39.05,10.10254 -71.24062,18.7508 -71.53472,19.21835 -0.2941,0.46756 -2.19142,8.4053 -4.21627,17.63942 -2.85689,13.02857 -5.49689,32.13306 -11.78589,85.28931 -4.45739,37.675 -8.41007,69.206 -8.78373,70.06889 -0.58947,1.36123 -4.28883,0.68579 -27.94909,-5.10304 z"
       id="path95369"
       transform="scale(0.26458333)" />
    <path
       style="fill:none;stroke:#e0e0e0;stroke-width:0.065;stroke-linecap:butt;stroke-linejoin:miter;stroke-miterlimit:4;stroke-dasharray:none;stroke-opacity:1"
       d="m 289.45416,15.08125 17.4625,-15.34583333"
       id="path95773" />
    <path
       style="fill:none;stroke:#e0e0e0;stroke-width:0.065;stroke-linecap:butt;stroke-linejoin:miter;stroke-miterlimit:4;stroke-dasharray:none;stroke-opacity:1"
       d="m 329.67083,129.38125 30.1625,0.79375"
       id="path100202" />
    <path
       style="fill:none;stroke:#e0e0e0;stroke-width:0.065;stroke-linecap:butt;stroke-linejoin:miter;stroke-miterlimit:4;stroke-dasharray:none;stroke-opacity:1"
       d="m 328.87708,266.7 30.95625,14.55208"
       id="path103674" />
    <path
       style="fill:none;stroke:#e0e0e0;stroke-width:0.065;stroke-linecap:butt;stroke-linejoin:miter;stroke-miterlimit:4;stroke-dasharray:none;stroke-opacity:1"
       d="m 77.787499,267.49375 -10.31875,32.27916"
       id="path108499" />
    <path
       style="opacity:1;fill:#e0e0e0;fill-opacity:1;stroke:#e0e0e0;stroke-width:0.245669;stroke-miterlimit:4;stroke-dasharray:none;stroke-opacity:1"
       d="M 949.10172,85.440079 943.22132,64.380158 926.99219,44.125134 910.76306,23.870109 900.38153,17.7388 890,11.60749 875,10.035918 C 852.11892,7.6386326 852.5,7.7259454 852.5,4.8807174 c 0,-1.3439179 0.5625,-2.657465 1.25,-2.9189937 0.6875,-0.2615287 68.89014,-0.3599056 151.5614,-0.2186152 L 1155.6228,2 1124.8635,29 c -16.9177,14.85 -31.4718,27.046335 -32.3426,27.102967 -0.8708,0.05663 -7.8692,4.944434 -15.5521,10.861782 C 1069.286,72.882097 1062.1,78.119138 1061,78.602619 1059.5138,79.255836 956.15156,106.5 955.15949,106.5 c -0.0976,0 -2.82356,-9.476964 -6.05777,-21.059921 z"
       id="path111876"
       transform="scale(0.26458333)" />
    <path
       style="opacity:1;fill:#e0e0e0;fill-opacity:1;stroke:#e0e0e0;stroke-width:0.245669;stroke-miterlimit:4;stroke-dasharray:none;stroke-opacity:1"
       d="m 1304,489.94414 c -23.1,-0.68299 -45.0375,-1.28732 -48.75,-1.34297 -4.9492,-0.0742 -6.75,-0.46124 -6.75,-1.45085 0,-1.75786 1.5152,-1.67459 -123,-6.75961 -56.925,-2.32473 -103.8364,-4.51002 -104.2474,-4.8562 -0.4111,-0.34617 4.6577,-2.38913 11.264,-4.5399 6.6063,-2.15078 11.8872,-4.2833 11.7353,-4.73895 -0.1519,-0.45565 -6.8609,-9.02457 -14.9089,-19.04206 L 1014.7102,429 l -1.3734,-8.48719 -1.3734,-8.48719 33.118,-21.26281 33.118,-21.26281 8.4003,0.009 c 8.1008,0.008 9.2716,0.33054 32.8391,9.04096 l 24.4388,9.03244 28.5016,4.62712 28.5017,4.62712 27.5595,-5.25562 c 15.1578,-2.89059 27.7716,-5.46569 28.0306,-5.72244 0.2591,-0.25676 0,-0.77987 -0.5827,-1.16246 -0.5796,-0.3826 -9.3416,-6.58092 -19.471,-13.77405 L 1218,357.84316 1190,347.59238 c -25.9314,-9.49347 -30.4376,-10.80313 -60.9949,-17.72733 -21.7893,-4.93738 -33.6758,-8.08216 -35,-9.25978 -1.1028,-0.98079 -5.9994,-5.23293 -10.8813,-9.44921 -7.1333,-6.16066 -10.9106,-10.58603 -19.2365,-22.5368 -10.0502,-14.42577 -10.9951,-15.43574 -31.5702,-33.74505 -23.6663,-21.06011 -25.7306,-22.7941 -26.3716,-22.153 -0.2471,0.24707 -2.9226,17.69753 -5.9455,38.77879 -3.02293,21.08126 -5.61098,38.44431 -5.75122,38.58455 -0.14024,0.14024 -21.85358,1.65688 -48.25188,3.37031 -26.39829,1.71343 -68.4362,5.06244 -93.41757,7.44225 l -45.42066,4.32692 -9.46758,-1.83359 c -5.20717,-1.00848 -9.6606,-2.02661 -9.89651,-2.26252 -0.23591,-0.23591 3.45555,-32.5362 8.20325,-71.77842 6.26871,-51.81431 9.52167,-75.30035 11.88095,-85.77942 l 3.24878,-14.42991 41.93622,-10.83954 C 932.60347,117.74147 1056.0118,85.555011 1060.5,84.198632 c 4.9977,-1.510373 34.3004,-23.297522 33.7112,-25.065027 -0.1904,-0.57106 14.0843,-13.75613 31.7213,-29.300156 L 1158,1.5715841 1259.25,1.5357921 1360.5,1.5 v 245 245 l -7.25,-0.15703 c -3.9875,-0.0864 -26.15,-0.71584 -49.25,-1.39883 z M 1174.5,478.5 c 1.784,-1.78399 2,-3.33333 2,-14.34501 0,-10.51061 -0.26,-12.5712 -1.75,-13.8672 -1.4303,-1.2441 -6.6364,-1.63814 -28.498,-2.15694 -33.2251,-0.78847 -30.752,-2.05223 -30.752,15.71416 0,10.62377 0.2513,12.57244 1.8023,13.97612 1.4967,1.35445 4.8466,1.68174 19.75,1.92959 9.8713,0.16416 21.8852,0.39991 26.6977,0.52388 7.5966,0.19569 9.0136,-0.0382 10.75,-1.7746 z"
       id="path111915"
       transform="scale(0.26458333)" />
    <path
       style="opacity:1;fill:#e0e0e0;fill-opacity:1;stroke:#e0e0e0;stroke-width:0.245669;stroke-miterlimit:4;stroke-dasharray:none;stroke-opacity:1"
       d="m 1302.0055,1034.9983 c -41.9523,-19.6999 -57.996,-27.6866 -58,-28.8728 0,-1.1376 -13.636,-8.91238 -44.5055,-25.38268 L 1155,957 1115.9661,866.5 1076.9322,776 1033.5574,711 c -23.8561,-35.75 -49.96342,-74.45 -58.01622,-86 -8.05281,-11.55 -19.7939,-29.50872 -26.09132,-39.90826 -10.65571,-17.5968 -17.14637,-26.09211 -32.6312,-42.70941 l -2.43928,-2.61766 44.31031,-28.77721 44.31031,-28.7772 17,0.66338 c 49.8803,1.94644 208.5053,8.65034 217.75,9.20268 9.7135,0.58034 10.75,0.47792 10.75,-1.06231 0,-1.55641 1.2822,-1.65201 14.75,-1.09974 8.1125,0.33266 33.2,1.09205 55.75,1.68754 22.55,0.59549 41.1133,1.19197 41.2517,1.32552 0.1385,0.13354 0.1385,128.28157 0,284.77339 L 1360,1062.2313 Z M 1147.0683,890.61191 c 14.537,-6.5002 14.469,-5.03641 1.5823,-34.02316 -5.4687,-12.30104 -10.6604,-23.20325 -11.5371,-24.22713 -2.3233,-2.71348 -4.0797,-2.38499 -16.1818,3.02647 -14.537,6.5002 -14.469,5.03641 -1.5823,34.02316 5.4687,12.30104 10.6604,23.20325 11.5371,24.22713 2.3233,2.71348 4.0797,2.38499 16.1818,-3.02647 z"
       id="path111954"
       transform="scale(0.26458333)" />
    <path
       style="opacity:1;fill:#e0e0e0;fill-opacity:1;stroke:#e0e0e0;stroke-width:0.245669;stroke-miterlimit:4;stroke-dasharray:none;stroke-opacity:1"
       d="m 288.5,1081.6752 v -51.8249 l 2.50682,-7.3703 c 1.37875,-4.0537 2.94579,-7.6417 3.48231,-7.9733 0.53652,-0.3316 7.02892,-16.55623 14.42755,-36.05478 L 322.36874,943 l 5.54611,-28 c 3.95252,-19.95467 6.14021,-34.17766 7.61376,-49.5 2.54266,-26.4391 2.51721,-26.30422 4.74597,-25.15225 4.97578,2.57182 18.04156,4.39107 27.93423,3.8895 l 10.20881,-0.5176 4.84734,5.14017 c 2.66603,2.8271 7.20311,9.50516 10.08239,14.84015 l 5.23505,9.69996 9.2088,4.82668 9.2088,4.82668 0.5,6.77794 0.5,6.77794 22.5,9.4888 c 20.93484,8.82874 23.29997,9.59582 34,11.02726 9.45243,1.26453 14.25977,2.60452 27,7.52592 l 15.5,5.98746 4.19012,6.3308 c 3.74086,5.65202 5.40275,7.05579 15.5,13.09259 6.22043,3.71899 22.92689,14.38444 37.12545,23.701 14.19856,9.31656 26.08786,16.6669 26.42067,16.33409 0.33281,-0.33281 -0.30219,-10.8408 -1.41111,-23.3511 L 596.80891,944 l 5.00176,-9 c 2.75097,-4.95 5.61652,-9.72155 6.36789,-10.60343 0.75138,-0.88189 5.87662,-3.58189 11.38944,-6 L 629.59131,914 669.31198,873 c 21.84637,-22.55 42.12433,-43.56977 45.06213,-46.71059 l 5.34146,-5.71059 4.89582,-23.28941 C 728.56952,778.46055 729.9066,769.40336 731.59254,750 l 2.08533,-24 4.75065,-5 c 2.61286,-2.75 18.24483,-19.42831 34.73771,-37.0629 l 29.98706,-32.06291 30.92336,9.90443 30.92335,9.90442 6.32922,6.15848 c 3.48108,3.38716 7.53108,8.47211 9,11.29988 4.23407,8.15083 204.57618,325.2828 205.51638,325.3227 1.8373,0.078 6.7528,-4.2652 6.2653,-5.5358 -0.2839,-0.7398 -45.4757,-72.5763 -100.42628,-159.63669 C 936.73408,762.23123 890.39783,688.3 888.71519,685 c -1.96873,-3.86109 -5.84989,-8.71381 -10.88727,-13.61269 L 870,663.77462 841,654.53397 c -15.95,-5.08236 -29.50332,-9.53165 -30.11849,-9.88731 -0.68677,-0.39706 3.36607,-6.3202 10.5,-15.34551 L 833,614.6023 l 11,-4.41045 11,-4.41045 8.5,-15.55297 c 4.675,-8.55414 8.64839,-15.40656 8.82976,-15.22761 0.18137,0.17895 -1.77579,5.87698 -4.34925,12.66227 L 863.3015,600 l 0.47371,12.52567 c 0.45603,12.05826 0.61413,12.8046 4.23668,20 2.06963,4.11088 6.33538,11.52433 9.47945,16.47433 3.14406,4.95 6.43208,10.39154 7.30671,12.09232 1.77267,3.44708 24.69444,26.3522 31.70195,31.67893 2.475,1.88136 8.325,5.58274 13,8.22529 4.675,2.64255 10.75,6.70668 13.5,9.0314 5.84957,4.94495 24.94444,17.64103 31.65274,21.04574 2.8555,1.44928 7.20181,5.28419 11.25186,9.92797 16.7848,19.24534 21.8661,28.7133 25.0891,46.74835 0.9584,5.3625 2.0268,9.74748 2.3744,9.74441 0.3475,-0.003 3.0237,-6.92044 5.9471,-15.37192 l 5.3151,-15.36632 -1.6931,-5.87809 c -0.9312,-3.23294 -2.712,-7.90308 -3.9573,-10.37808 -2.7132,-5.39237 -14.7118,-23.74966 -17.2091,-26.32905 -4.63259,-4.7849 -17.04175,-13.21403 -29.38549,-19.96061 -7.48807,-4.09267 -16.03807,-9.24109 -19,-11.44093 -2.96192,-2.19984 -10.21191,-6.79539 -16.11109,-10.21234 -14.58436,-8.44762 -25.18899,-19.5635 -35.92771,-37.65982 C 890.67083,626.90716 887.13152,615.96177 887.15187,601 c 0.0127,-9.30014 0.56666,-13.16346 3.58504,-25 4.55161,-17.84907 4.57698,-18.16367 1.88293,-23.3469 -1.24265,-2.3908 -2.11547,-4.46482 -1.9396,-4.60893 0.17587,-0.14411 4.42243,-1.62353 9.4368,-3.2876 l 9.11704,-3.02558 12.42878,14.1345 c 9.98562,11.35605 14.56983,17.67283 23.32063,32.13451 5.99051,9.9 18.39055,28.8 27.55563,42 9.16509,13.2 35.46968,52.2226 58.45458,86.71688 l 41.7908,62.71689 39.1078,90.7407 39.1077,90.74069 45.2536,24.12576 c 24.8895,13.26916 45.8145,24.13258 46.5,24.14098 0.6855,0.01 27.4589,12.3293 59.4964,27.3798 l 58.25,27.3646 v 34.7869 34.7868 h -536 -536 z"
       id="path111993"
       transform="scale(0.26458333)" />
    <path
       style="opacity:1;fill:#e0e0e0;fill-opacity:1;stroke:#e0e0e0;stroke-width:0.245669;stroke-miterlimit:4;stroke-dasharray:none;stroke-opacity:1"
       d="M 1.5,801 V 468.5 h 66 c 54.68395,0 66,0.23106 66,1.34765 0,0.74121 -4.05,16.23574 -9,34.4323 -4.95,18.19655 -9,33.83753 -9,34.75773 0,0.9202 1.14618,5.43084 2.54708,10.02365 l 2.54707,8.35055 7.26989,4.01307 c 3.99844,2.20719 7.96177,4.81451 8.80739,5.79406 0.84563,0.97954 5.21061,8.35785 9.69997,16.39624 l 8.16247,14.61525 20.73306,18.80929 c 11.40319,10.3451 27.70807,25.94303 36.23307,34.66206 15.31768,15.6663 15.59998,15.89175 24,19.16624 l 8.5,3.31347 3.88966,7.63579 3.88966,7.6358 -3.88966,4.63552 c -8.45973,10.08193 -8.00485,8.72351 -5.51246,16.46214 2.1783,6.7634 2.2558,6.85504 7.41206,8.76401 2.86591,1.06102 9.71074,3.60035 15.21074,5.64295 l 10,3.71382 13.12421,18.6642 c 7.21832,10.26532 16.40688,23.47752 20.41902,29.36046 l 7.29479,10.69625 -1.2713,8.54515 c -1.23444,8.29729 -0.61019,14.6007 2.55008,25.74993 0.2631,0.92817 3.60694,4.07354 7.43078,6.98971 3.82383,2.91618 6.95242,5.9531 6.95242,6.74872 0,0.79562 -1.16609,12.95025 -2.59132,27.01029 -1.92378,18.97843 -3.96526,32.39016 -7.9249,52.0637 l -5.33359,26.5 -13.54728,35.45817 c -13.24715,34.67263 -13.63133,36.04943 -10.40161,37.27553 0.38572,0.1465 -7.90931,27.1538 -18.4334,60.0163 l -19.13471,59.75 H 127.8166 1.5 Z m 287.41657,200.25 c 0.80447,-1.2375 5.33677,-12.35044 10.07177,-24.69542 6.08834,-15.87337 8.52163,-23.45612 8.31038,-25.89726 -0.29489,-3.40763 -0.43961,-3.50689 -11.29872,-7.74939 -12.71824,-4.96885 -14.90769,-5.24814 -16.91657,-2.15793 -0.80447,1.2375 -5.33677,12.35044 -10.07177,24.69542 -6.08834,15.87337 -8.52163,23.45612 -8.31038,25.89726 0.29489,3.40763 0.43961,3.50689 11.29872,7.74939 12.71824,4.96883 14.90769,5.24813 16.91657,2.15793 z"
       id="path112032"
       transform="scale(0.26458333)" />
    <path
       style="opacity:1;fill:#e0e0e0;fill-opacity:1;stroke:#e0e0e0;stroke-width:0.245669;stroke-miterlimit:4;stroke-dasharray:none;stroke-opacity:1"
       d="m 255.98074,1132.25 c 0.22988,-0.6875 7.23598,-22.625 15.5691,-48.75 8.33313,-26.125 15.33092,-47.6875 15.55065,-47.9167 0.21973,-0.2291 0.39951,21.7084 0.39951,48.75 V 1133.5 h -15.96861 c -12.33115,0 -15.87341,-0.2847 -15.55065,-1.25 z"
       id="path112071"
       transform="scale(0.26458333)" />
    <path
       style="opacity:1;fill:#e0e0e0;fill-opacity:1;stroke:#e0e0e0;stroke-width:0.245669;stroke-miterlimit:4;stroke-dasharray:none;stroke-opacity:1"
       d="M 53.25,467.76284 1.5,467.482 v -39.87901 -39.87901 l 17.25,-3.26007 c 9.4875,-1.79305 46.275,-8.76934 81.75,-15.50288 35.475,-6.73353 64.65414,-12.10025 64.84253,-11.92605 0.18839,0.17421 -1.98421,11.26261 -4.828,24.64088 -4.85969,22.86186 -5.56772,25.19583 -11.77767,38.82414 -5.09216,11.17523 -7.54942,18.28336 -10.7166,31 l -4.10946,16.5 -14.4554,0.0218 c -7.95047,0.012 -37.7429,-0.10453 -66.2054,-0.259 z"
       id="path112110"
       transform="scale(0.26458333)" />
    <path
       style="opacity:1;fill:#e0e0e0;fill-opacity:1;stroke:#000000;stroke-width:0;stroke-miterlimit:4;stroke-dasharray:none;stroke-opacity:1"
       d="m 959.08173,720.50158 c -7.38005,-4.93301 -14.35505,-9.83717 -15.5,-10.89813 -1.14495,-1.06096 -8.07206,-5.7045 -15.39357,-10.31897 -11.27894,-7.10869 -15.4515,-10.5199 -27.32266,-22.33722 -7.70594,-7.67099 -15.55311,-16.48112 -17.43815,-19.57807 -3.34193,-5.49047 -4.58554,-8.88552 -2.14555,-5.85733 4.59802,5.70645 35.47294,27.36179 52.7182,36.97598 19.18916,10.69792 27.15522,18.21336 36.89309,34.80617 1.7088,2.9117 3.10691,5.4992 3.10691,5.75 0,1.19322 -2.46428,-0.21786 -14.91827,-8.54243 z"
       id="path14309"
       transform="scale(0.26458333)" />
    <path
       style="opacity:1;fill:#e0e0e0;fill-opacity:1;stroke:#000000;stroke-width:0;stroke-miterlimit:4;stroke-dasharray:none;stroke-opacity:1"
       d="m 899,647.8252 c -7.3988,-5.67661 -13.89807,-12.35841 -20.20941,-20.77697 -12.10257,-16.14336 -13.10456,-20.96159 -6.92927,-33.32043 2.12372,-4.25029 4.43441,-9.5278 5.13487,-11.7278 1.48026,-4.64922 5.01631,-11.12291 9.55883,-17.5 1.76299,-2.475 3.52009,-5.9625 3.90466,-7.75 0.86756,-4.0324 2.1772,-4.17978 3.02057,-0.33992 0.40772,1.85635 -0.6498,8.31601 -2.92054,17.83951 -7.02995,29.48363 -4.13545,48.3689 11.1164,72.52939 1.35755,2.15049 2.32328,4.04246 2.14608,4.20438 C 903.64498,651.14527 901.475,649.7241 899,647.8252 Z"
       id="path16551"
       transform="scale(0.26458333)" />
    <path
       style="opacity:1;fill:#e0e0e0;fill-opacity:1;stroke:#000000;stroke-width:0;stroke-miterlimit:4;stroke-dasharray:none;stroke-opacity:1"
       d="m 1012.255,786.80374 c -1.1207,-2.64206 -2.3655,-6.37874 -2.7662,-8.30374 -1.0951,-5.25976 -5.7422,-15.01031 -10.47666,-21.98213 -2.77128,-4.08089 -5.67226,-10.54347 -8.4673,-18.86279 -2.33845,-6.96029 -5.92156,-15.9637 -7.96246,-20.00756 -2.04091,-4.04387 -3.47091,-7.59233 -3.17777,-7.88546 0.62874,-0.62874 3.33778,1.04317 13.97261,8.62332 6.87698,4.90167 8.79728,7.01141 15.12328,16.61462 8.4478,12.82439 11.6674,18.94725 13.8744,26.38587 l 1.598,5.38588 -4.0832,11.61412 c -2.2457,6.38777 -4.4238,11.97581 -4.8401,12.41787 -0.4164,0.44205 -1.674,-1.35795 -2.7946,-4 z"
       id="path16590"
       transform="scale(0.26458333)" />
    <path
       style="opacity:1;fill:#e0e0e0;fill-opacity:1;stroke:#000000;stroke-width:0;stroke-miterlimit:4;stroke-dasharray:none;stroke-opacity:1"
       d="m 1126.0232,882.21229 c -7.6699,-16.1547 -14.1702,-31.4304 -15.0672,-35.40758 -0.477,-2.11485 -0.2628,-3.84938 0.6334,-5.12887 1.5511,-2.21456 19.0379,-10.17584 22.351,-10.17584 1.834,0 3.1785,2.05574 8.0364,12.28771 7.6699,16.1547 14.1702,31.4304 15.0672,35.40758 0.477,2.11485 0.2628,3.84938 -0.6334,5.12887 -1.5511,2.21456 -19.0379,10.17584 -22.351,10.17584 -1.834,0 -3.1785,-2.05574 -8.0364,-12.28771 z"
       id="path16629"
       transform="scale(0.26458333)" />
    <path
       style="opacity:1;fill:#e0e0e0;fill-opacity:1;stroke:#000000;stroke-width:0;stroke-miterlimit:4;stroke-dasharray:none;stroke-opacity:1"
       d=""
       id="path16668"
       transform="scale(0.26458333)" />
    <path
       style="opacity:1;fill:#e0e0e0;fill-opacity:1;stroke:#000000;stroke-width:0;stroke-miterlimit:4;stroke-dasharray:none;stroke-opacity:1"
       d=""
       id="path16707"
       transform="scale(0.26458333)" />
    <path
       style="opacity:1;fill:#e0e0e0;fill-opacity:1;stroke:#000000;stroke-width:0;stroke-miterlimit:4;stroke-dasharray:none;stroke-opacity:1"
       d=""
       id="path16746"
       transform="scale(0.26458333)" />
    <path
       style="opacity:1;fill:#e0e0e0;fill-opacity:1;stroke:#000000;stroke-width:0;stroke-miterlimit:4;stroke-dasharray:none;stroke-opacity:1"
       d=""
       id="path16785"
       transform="scale(0.26458333)" />
    <path
       style="opacity:1;fill:#e0e0e0;fill-opacity:1;stroke:#000000;stroke-width:0;stroke-miterlimit:4;stroke-dasharray:none;stroke-opacity:1"
       d="m 1129.801,905.32331 c -2.651,-1.59411 -3.1108,-2.1295 -4.5496,-5.29831 -0.8803,-1.93875 -12.9305,-29.85 -26.7782,-62.025 l -25.1777,-58.5 -34.508,-51.75 -34.508,-51.75 -5.63976,-11.95833 c -3.10186,-6.57708 -5.56121,-12.03687 -5.46521,-12.13286 0.14061,-0.14062 59.14087,87.67338 78.51077,116.85282 l 4.8204,7.26164 28.2381,65.45575 c 15.531,36.00067 28.1859,65.49218 28.1221,65.53669 -0.064,0.0445 -1.443,-0.71708 -3.0649,-1.6924 z"
       id="path16824"
       transform="scale(0.26458333)" />
    <path
       style="opacity:1;fill:#e0e0e0;fill-opacity:1;stroke:#000000;stroke-width:0;stroke-miterlimit:4;stroke-dasharray:none;stroke-opacity:1"
       d=""
       id="path16900"
       transform="scale(0.26458333)" />
    <path
       style="opacity:1;fill:#e0e0e0;fill-opacity:1;stroke:#000000;stroke-width:0;stroke-miterlimit:4;stroke-dasharray:none;stroke-opacity:1"
       d="m 1245.8068,1008.9325 c -1.8446,-0.9596 -2.5371,-1.1189 -2.8267,-0.6502 -0.277,0.448 -4.6037,-1.5762 -15.5569,-7.2781 -22.6282,-11.77969 -75.083,-39.76531 -75.786,-40.43328 -0.6717,-0.63824 -21.6235,-48.9585 -21.3559,-49.25249 0.091,-0.0999 1.471,0.61016 3.0669,1.57783 l 2.9018,1.75941 9.25,21.33262 9.25,21.33262 26.25,14.00253 c 45.64,24.34573 59.2832,31.94966 62.6876,34.93876 0.9159,0.8042 2.6546,2.0277 3.8638,2.719 2.869,1.64 1.4241,1.5997 -1.7446,-0.049 z"
       id="path16939"
       transform="scale(0.26458333)" />
    <path
       style="opacity:1;fill:#e0e0e0;fill-opacity:1;stroke:#000000;stroke-width:0;stroke-miterlimit:4;stroke-dasharray:none;stroke-opacity:1"
       d=""
       id="path16978"
       transform="scale(0.26458333)" />
    <path
       style="opacity:1;fill:#e0e0e0;fill-opacity:1;stroke:#000000;stroke-width:0;stroke-miterlimit:4;stroke-dasharray:none;stroke-opacity:1"
       d="m 1078.6094,1002.627 c -11.0701,-17.20889 -26.7519,-41.86304 -55.101,-86.627 -39.30116,-62.05767 -41.63944,-65.78563 -41.40783,-66.01724 0.11948,-0.11948 23.33973,34.99137 51.60043,78.0241 l 51.3833,78.24134 3.2419,1.813 3.2419,1.813 -1.2616,1.3168 c -0.6939,0.7243 -1.9267,1.7098 -2.7397,2.19 l -1.478,0.8731 z"
       id="path17017"
       transform="scale(0.26458333)" />
    <path
       style="opacity:1;fill:#e0e0e0;fill-opacity:1;stroke:#000000;stroke-width:0;stroke-miterlimit:4;stroke-dasharray:none;stroke-opacity:1"
       d="m 912.87313,728.62686 c -21.89188,-33.33728 -39.68504,-60.72881 -39.54036,-60.87005 0.35803,-0.34953 8.45667,8.14115 11.24775,11.79223 1.24073,1.62303 2.90026,4.07596 3.68784,5.45096 2.29297,4.00316 18.64913,30.27331 42.59364,68.41104 12.22792,19.47607 22.13853,35.50509 22.02357,35.62006 -0.11496,0.11496 -18.12056,-27.06695 -40.01244,-60.40424 z"
       id="path17056"
       transform="scale(0.26458333)" />
    <path
       style="opacity:1;fill:#e0e0e0;fill-opacity:1;stroke:#000000;stroke-width:0;stroke-miterlimit:4;stroke-dasharray:none;stroke-opacity:1"
       d=""
       id="path17095"
       transform="scale(0.26458333)" />
    <path
       style="opacity:1;fill:#e0e0e0;fill-opacity:1;stroke:#000000;stroke-width:0;stroke-miterlimit:4;stroke-dasharray:none;stroke-opacity:1"
       d=""
       id="path17134"
       transform="scale(0.26458333)" />
  </g>
  <g
     inkscape:groupmode="layer"
     id="layer3"
     inkscape:label="VILLAGES"
     style="display:inline"
     sodipodi:insensitive="true">
    <path
       style="fill:none;stroke:#646464;stroke-width:0.665;stroke-linecap:butt;stroke-linejoin:miter;stroke-miterlimit:4;stroke-dasharray:none;stroke-opacity:1"
       d="m 73.024999,25.4 17.727083,8.73125 1.058334,11.112499 12.964584,19.579167 9.26042,2.645833 10.31875,5.55625 7.40833,6.879167 9.26041,2.116666 19.57917,-2.116666 4.89479,0.926041 2.91042,-1.455208 15.74271,2.38125 7.40833,-0.264584 16.40417,3.968751 5.55625,1.058333 25.13541,-2.38125 24.87084,-1.5875 2.91041,-20.372916 11.90625,10.583333 5.55625,7.9375 5.82084,5.027083 17.4625,3.96875 15.08125,5.55625 9.26041,6.614581 -13.75833,2.64584 -14.81667,-2.38125 -12.96458,-4.762505 h -5.02708 l -17.72709,11.377085 0.79375,5.02708 7.67292,9.525 -9.525,3.175 -24.87083,16.13958 -6.61459,2.11667 -3.175,4.7625 -5.55625,10.31875 -5.82083,2.38125 -7.14375,8.99583 -19.31458,20.6375 -1.05834,12.43542 -2.64583,12.7 -23.54792,24.34167 -5.82083,2.64583 -3.175,5.55625 1.05833,11.90625 -11.64166,-7.67292 -7.40834,-4.49791 -2.38125,-3.43959 -8.20208,-3.175 -6.08541,-0.79375 -11.90625,-5.02708 v -3.43958 l -5.02709,-2.64584 -2.91041,-5.29166 -2.64584,-2.64584 -5.556248,0.26459 -4.497916,-1.05834 -5.820834,-4.49791 -1.058333,-4.7625 0.79375,-4.49792 -5.291667,-7.67292 -5.820833,-8.20208 -7.9375,-2.91042 -1.058333,-3.175 3.175,-3.70416 -2.116667,-4.49792 -4.7625,-1.85208 -7.14375,-7.40834 L 41.274999,157.95625 36.5125,149.48958 32.279166,147.10833 30.95625,142.61041 35.189583,127 l 2.645833,-11.1125 3.704167,-8.20208 2.910416,-13.758338 -4.233333,-29.633333 -2.38125,-5.027083 1.322917,-6.614583 -0.529167,-2.38125 v -2.38125 l 2.910417,0.529166 3.175,-1.852083 -1.058334,-10.847916 4.233334,-6.879167 9.525,-3.704167 z"
       id="path20456"
       sodipodi:nodetypes="ccccccccccccccccccccccccccccccccccccccccccccccccccccccccccccccccccccccccccccccccccccccc" />
    <path
       style="fill:none;stroke:#646464;stroke-width:0.665;stroke-linecap:butt;stroke-linejoin:miter;stroke-miterlimit:4;stroke-dasharray:none;stroke-opacity:1"
       d="m 215.9,145.25625 5.95312,-9.92188 8.06979,-9.3927 3.175,-3.96875 2.11667,-1.32292 3.43958,-0.52917 3.70417,-0.26458 4.49792,0.39687 1.85208,0.26459 8.20208,-4.36563 4.10105,-2.64583 6.74687,1.5875"
       id="path196" />
    <path
       style="fill:none;stroke:#646464;stroke-width:0.665;stroke-linecap:butt;stroke-linejoin:miter;stroke-miterlimit:4;stroke-dasharray:none;stroke-opacity:1"
       d="m 181.76875,128.32292 23.28333,-10.31875 15.61042,-7.9375 15.34583,-7.40834 26.45833,-7.937498 28.575,-8.73125"
       id="path3898" />
    <path
       style="fill:none;stroke:#646464;stroke-width:0.665;stroke-linecap:butt;stroke-linejoin:miter;stroke-miterlimit:4;stroke-dasharray:none;stroke-opacity:1"
       d="m 44.979166,92.868749 35.454166,-6.085417 -13.758333,-6.879166 -15.08125,-32.279167 3.439584,-13.758333 0.529166,-3.175 -2.116666,-4.233333"
       id="path6842" />
    <path
       style="fill:none;stroke:#646464;stroke-width:0.665;stroke-linecap:butt;stroke-linejoin:miter;stroke-miterlimit:4;stroke-dasharray:none;stroke-opacity:1"
       d="m 50.270833,165.89375 1.5875,-2.51354 6.482291,-1.32292 21.034375,-3.43958 -9.657292,-45.77292 22.092709,-3.175 -11.509375,-22.886458"
       id="path9357" />
    <path
       style="fill:none;stroke:#646464;stroke-width:0.665;stroke-linecap:butt;stroke-linejoin:miter;stroke-miterlimit:4;stroke-dasharray:none;stroke-opacity:1"
       d="m 139.96458,81.623957 -24.34166,13.758333 -15.875005,9.39271 -5.159375,1.05833 0.661459,3.43959 -3.836458,0.66145"
       id="path12763" />
    <path
       style="fill:none;stroke:#646464;stroke-width:0.665;stroke-linecap:butt;stroke-linejoin:miter;stroke-miterlimit:4;stroke-dasharray:none;stroke-opacity:1"
       d="m 100.40937,168.67187 -6.746871,-5.55625 -3.571875,-2.91041 -4.365625,-3.175 0.132292,-5.82084 1.719791,-3.30729 2.248959,-2.51354 4.101041,-2.11667 3.571875,-1.5875 4.762503,-2.24896 4.23333,-2.24895 2.38125,-2.11667 1.45521,-1.98438 4.49792,-2.24895 2.38125,-1.5875 0.79375,-2.11667 -0.26459,-1.98437 -1.32291,-0.92605 -1.19063,-1.98437 16.40417,-5.02708 21.43125,-5.42396"
       id="path14816" />
    <path
       style="fill:none;stroke:#646464;stroke-width:0.665;stroke-linecap:butt;stroke-linejoin:miter;stroke-miterlimit:4;stroke-dasharray:none;stroke-opacity:1"
       d="m 153.59062,111.91875 5.15938,-1.71979 0.52916,1.85208 4.10105,0.26458 4.10104,1.7198 0.66146,1.05833 3.30729,-0.39688"
       id="path17760" />
    <path
       style="fill:none;stroke:#646464;stroke-width:0.665;stroke-linecap:butt;stroke-linejoin:miter;stroke-miterlimit:4;stroke-dasharray:none;stroke-opacity:1"
       d="m 100.93854,168.93646 4.36563,1.98437 6.35,-1.5875 12.7,-22.48958 19.97604,-4.23334 12.43541,-3.70416 5.95313,-2.77813"
       id="path20176"
       sodipodi:nodetypes="ccccccc" />
    <path
       style="fill:none;stroke:#646464;stroke-width:0.665;stroke-linecap:butt;stroke-linejoin:miter;stroke-miterlimit:4;stroke-dasharray:none;stroke-opacity:1"
       d="m 185.7375,137.05416 -16.27188,11.1125"
       id="path23912" />
    <path
       style="fill:none;stroke:#646464;stroke-width:0.665;stroke-linecap:butt;stroke-linejoin:miter;stroke-miterlimit:4;stroke-dasharray:none;stroke-opacity:1"
       d="m 143.80104,142.875 12.30312,27.25208 8.73125,29.50104 -6.74687,3.83646 -18.65313,33.60208 -1.5875,9.525"
       id="path26460" />
    <path
       style="fill:none;stroke:#646464;stroke-width:0.665;stroke-linecap:butt;stroke-linejoin:miter;stroke-miterlimit:4;stroke-dasharray:none;stroke-opacity:1"
       d="m 79.110416,158.22083 7.14375,-0.79375"
       id="path28744" />
    <path
       style="opacity:1;fill:#d6ffdb;fill-opacity:1;stroke:#000000;stroke-width:0;stroke-miterlimit:4;stroke-dasharray:none;stroke-opacity:1"
       d="m 325.96091,824.9936 -5.5391,-4.29618 -1.75201,-8.84871 c -1.60898,-8.12628 -1.62853,-9.53073 -0.23939,-17.20249 l 1.51262,-8.35379 -13.31035,-19.14621 C 299.31198,756.6158 289.7623,742.96674 285.41116,736.81497 L 277.5,725.62995 l -10,-3.69585 c -5.5,-2.03272 -12.27668,-4.53718 -15.05928,-5.56547 -4.70771,-1.73969 -5.17119,-2.21955 -6.66964,-6.9053 l -1.61035,-5.03569 6.03325,-6.99253 6.03324,-6.99253 -4.30122,-9.37676 -4.30122,-9.37676 -9.07749,-3.5928 -9.07749,-3.5928 -18.59566,-18.83636 -18.59566,-18.83637 2.61076,-3.84158 c 2.51143,-3.69542 3.01025,-3.92712 13.11076,-6.08981 5.775,-1.23652 29.175,-5.28001 52,-8.98553 22.825,-3.70551 41.76256,-7.13232 42.08347,-7.61512 0.32091,-0.4828 5.71081,-1.4625 11.97757,-2.17711 l 11.3941,-1.29929 7.52243,5.54573 c 9.58331,7.06507 42.42019,34.01909 42.83859,35.16389 0.78757,2.15488 -14.1006,45.70861 -23.53993,68.86353 L 341.83829,732 l -3.41851,27 c -1.88017,14.85 -4.1106,36.65431 -4.9565,48.45403 -0.8459,11.79971 -1.63369,21.53991 -1.75064,21.64489 -0.11695,0.10498 -2.70523,-1.74241 -5.75173,-4.10532 z"
       id="path359"
       transform="scale(0.26458333)" />
    <path
       style="opacity:1;fill:#d6ffdb;fill-opacity:1;stroke:#000000;stroke-width:0;stroke-miterlimit:4;stroke-dasharray:none;stroke-opacity:1"
       d="m 503.6515,921.47076 c -12.47769,-4.84312 -17.71486,-6.31583 -28,-7.87366 C 463.94483,911.82396 461.4317,911.01416 442,902.75362 l -21,-8.92723 -0.29593,-6.67375 -0.29593,-6.67376 -7.20407,-3.61494 c -10.90292,-5.47101 -12.1415,-6.64434 -17.54917,-16.62472 -3.15118,-5.8158 -7.0422,-11.23546 -10.50119,-14.62674 l -5.49509,-5.38751 -10.32931,0.52917 c -8.09935,0.41493 -12.16435,0.10961 -18.82931,-1.41428 -13.12381,-3.00065 -12.25643,-0.81247 -10.48434,-26.44918 0.83223,-12.03988 3.06905,-34.50212 4.97072,-49.91609 l 3.45758,-28.02542 10.14781,-24.97458 c 5.58129,-13.73603 13.2113,-34.57949 16.95558,-46.31882 3.74428,-11.73933 7.01232,-21.54878 7.26232,-21.79878 0.25,-0.25 3.69546,0.99458 7.65656,2.76573 l 7.20201,3.22028 12.02171,-2.88864 c 6.61194,-1.58876 12.60247,-3.35343 13.31228,-3.9215 0.70981,-0.56807 11.52533,-19.25786 24.03449,-41.53286 12.50917,-22.275 23.27057,-41.07371 23.91424,-41.77492 0.96884,-1.05544 70.5463,-16.56116 71.23283,-15.87462 0.12048,0.12047 10.56383,23.15341 23.20744,51.18429 L 588.37963,644 l 16.06019,54.24746 c 8.8331,29.8361 16.05341,54.5861 16.04514,55 -0.008,0.4139 -5.52076,3.82853 -12.25,7.58806 L 596,767.67105 l -35.29546,63.65092 -35.29546,63.65093 -2.67183,16.26355 c -1.4695,8.94495 -2.91154,16.24739 -3.20453,16.22764 -0.293,-0.0197 -7.43955,-2.71675 -15.88122,-5.99333 z"
       id="path5801"
       transform="scale(0.26458333)" />
    <path
       style="opacity:1;fill:none;fill-opacity:1;stroke:#000000;stroke-width:0;stroke-miterlimit:4;stroke-dasharray:none;stroke-opacity:1"
       d="m 739.5,622.08759 c -53.14136,-17.19384 -66.50372,-21.86891 -70.81965,-24.77756 -4.77439,-3.21763 -6.32341,-5.30808 -15.11239,-20.3946 l -9.79273,-16.80949 22.17948,-15.17338 c 12.19871,-8.34536 25.37576,-17.29875 29.28231,-19.89644 l 7.10283,-4.72306 6.49839,5.51275 c 8.72514,7.40176 22.46692,16.54987 32.19388,21.43194 4.38233,2.19954 16.29288,6.63037 26.46788,9.84629 l 18.5,5.84713 16.73687,0.35849 16.73687,0.35849 12.76313,-4.19971 c 7.01972,-2.30985 14.5098,-5.08701 16.64461,-6.17148 9.52885,-4.84058 18.52381,-5.97804 25.2464,-3.19255 6.55188,2.71475 6.6888,3.07754 3.11334,8.24891 -1.76698,2.55567 -14.94495,23.83517 -20.72883,23.60939 -15.19182,-0.59303 -9.4205,20.91484 -6.01426,16.27104 4.99901,-6.81525 -6.42801,7.91569 -11.2312,9.88022 l -8.73306,3.57188 -12.57647,15.90708 c -6.91705,8.74889 -12.66217,15.85758 -12.76693,15.7971 -0.10476,-0.0605 -29.66547,-9.64658 -65.69047,-21.30244 z"
       id="path5840"
       transform="scale(0.26458333)"
       sodipodi:nodetypes="ssscsscssscccssssssscsss" />
    <path
       style="opacity:1;fill:#fbcce7;fill-opacity:1;stroke:#000000;stroke-width:0;stroke-miterlimit:4;stroke-dasharray:none;stroke-opacity:1"
       d="M 576.64625,971.06933 C 566.55169,964.31378 551.45524,954.63452 543.09858,949.55987 530.89155,942.14703 527.392,939.51413 525.29679,936.16661 L 522.68891,932 l 2.96075,-17.49629 2.96075,-17.49629 35.17751,-63.32776 35.17752,-63.32775 12.74109,-7.17595 c 7.35395,-4.14185 12.75312,-7.81019 12.76953,-8.67596 0.0156,-0.825 -7.39563,-26.54219 -16.4695,-57.14931 l -16.49793,-55.64931 -22.65111,-50.12056 c -12.45811,-27.56631 -22.41216,-50.35951 -22.1201,-50.65157 0.29205,-0.29205 10.9319,-3.62891 23.64411,-7.41524 13.45693,-4.00814 27.14835,-8.79575 32.77192,-11.45966 5.31235,-2.51648 9.78423,-4.45 9.93753,-4.29671 0.15329,0.1533 2.67053,6.15205 5.59387,13.33057 3.60998,8.86465 10.55945,22.06595 21.66207,41.14955 l 16.34691,28.0977 6.65309,4.3874 c 5.93511,3.91393 13.5057,6.5814 70.15308,24.71818 34.925,11.18194 63.83935,20.63148 64.25411,20.99898 0.41476,0.36751 -14.52676,17.00029 -33.20337,36.96173 -31.29819,33.45131 -33.99984,36.61872 -34.49835,40.4459 -0.29748,2.28379 -1.26425,12.92735 -2.14838,23.65235 -1.21985,14.79754 -2.80311,25.28764 -6.5654,43.5 l -4.9579,24 -9.31135,9.5 c -5.12124,5.225 -24.91918,25.7 -43.99542,45.5 l -34.68408,36 -11.19493,5.18111 L 606,920.36223 599.61704,931.18111 593.23408,942 l 1.64658,19.5 c 1.8822,22.29039 1.87167,22.02487 0.86934,21.92608 -0.4125,-0.0407 -9.00919,-5.60119 -19.10375,-12.35675 z"
       id="path9636"
       transform="scale(0.26458333)" />
    <path
       style="opacity:1;fill:#d0bef8;fill-opacity:1;stroke:#000000;stroke-width:0;stroke-miterlimit:4;stroke-dasharray:none;stroke-opacity:1"
       d="m 636.3382,547.22895 c -6.03684,-10.79347 -51.82515,-122.6805 -50.64104,-123.74504 0.44156,-0.39697 3.56371,-1.6338 6.9381,-2.74852 l 6.13526,-2.02675 0.89912,3.14568 c 0.89292,3.12397 0.95537,3.14988 9.04686,3.75431 9.37627,0.7004 20.5173,4.74572 23.93311,8.69014 2.00271,2.31264 2.56873,2.43486 8.28244,1.78843 6.12159,-0.69258 6.13171,-0.68942 5.52522,1.72703 -1.60814,6.40735 5.30423,24.93817 14.8669,39.85546 4.81038,7.50394 23.91101,28.34835 29.5467,32.24414 2.45546,1.69739 5.54486,3.98946 6.86532,5.09348 l 2.40084,2.00731 -28.98223,19.74269 c -15.94023,10.85848 -29.13356,19.73322 -29.31852,19.72164 -0.18495,-0.0116 -2.65909,-4.17408 -5.49808,-9.25 z"
       id="path9792"
       transform="scale(0.26458333)" />
    <path
       style="opacity:1;fill:#d0bef8;fill-opacity:1;stroke:#000000;stroke-width:0;stroke-miterlimit:4;stroke-dasharray:none;stroke-opacity:1"
       d="m 390.5,640.70402 c -3.025,-1.47086 -5.6329,-2.73887 -5.79533,-2.81781 -0.16243,-0.0789 26.73208,-43.96063 59.76559,-97.51487 L 504.53117,443 l 35.14228,-8.79214 c 19.32825,-4.83567 35.487,-8.43567 35.90833,-8 0.9883,1.02196 36.13228,87.41141 35.72529,87.81841 -0.169,0.16899 -4.77606,2.38137 -10.23792,4.91639 -15.6289,7.25387 -52.06745,17.50779 -92.56915,26.04926 -19.525,4.11765 -36.46634,7.71345 -37.64741,7.99067 -1.61267,0.37851 -7.93625,10.77761 -25.39424,41.76071 -12.78576,22.69119 -23.79096,41.84966 -24.456,42.5744 -1.3573,1.47911 -18.63723,6.16449 -22.50235,6.10141 -1.375,-0.0224 -4.975,-1.24423 -8,-2.71509 z"
       id="path12774"
       transform="scale(0.26458333)" />
    <path
       style="opacity:1;fill:#d0bef8;fill-opacity:1;stroke:#000000;stroke-width:0;stroke-miterlimit:4;stroke-dasharray:none;stroke-opacity:1"
       d="m 360.19199,619.14371 c -9.68177,-7.9536 -21.48604,-17.28216 -26.23172,-20.73012 l -8.6285,-6.26903 0.69181,-10.57228 c 0.60459,-9.23939 1.08065,-11.26569 3.77608,-16.07228 6.18632,-11.0317 9.82918,-14.2103 24.10434,-21.03237 45.35515,-21.67514 49.23812,-23.75824 55.35641,-29.69704 3.26974,-3.17383 6.57377,-6.72131 7.34229,-7.8833 0.76851,-1.162 4.7723,-3.79351 8.8973,-5.84782 13.80441,-6.87478 18.73694,-10.56214 20.57822,-15.38345 2.63436,-6.89797 1.54649,-12.29857 -3.45511,-17.15245 -2.26771,-2.20074 -4.12311,-4.34252 -4.12311,-4.7595 0,-0.81569 54.00044,-17.57696 54.62292,-16.95449 0.38728,0.38729 -112.78183,184.26933 -114.40874,185.89624 -0.55865,0.55865 -7.82129,-4.75128 -18.52219,-13.54211 z"
       id="path12813"
       transform="scale(0.26458333)" />
    <path
       style="opacity:1;fill:#ffd38c;fill-opacity:1;stroke:#000000;stroke-width:0;stroke-miterlimit:4;stroke-dasharray:none;stroke-opacity:1"
       d="m 612.69345,409.00508 c -21.06859,-6.20666 -38.44311,-11.44689 -38.61002,-11.64496 -0.16692,-0.19806 -4.22035,-9.99275 -9.00763,-21.76597 l -8.70414,-21.40584 7.71994,-22.59416 c 4.24596,-12.42678 7.99522,-22.91703 8.33167,-23.31165 0.33646,-0.39463 6.90386,-1.41065 14.59423,-2.25782 7.69038,-0.84718 15.21175,-1.7489 16.71417,-2.00383 l 2.73167,-0.46352 -0.5723,5.72134 c -0.45616,4.56035 -0.0257,7.43365 2.12133,14.15963 2.38959,7.48591 3.49968,9.32668 9.83537,16.30933 4.78302,5.27143 10.17565,9.81677 16.32777,13.76235 18.88554,12.11199 28.36993,15.54798 46.82449,16.96351 6.05,0.46406 15.5,1.30754 21,1.8744 5.5,0.56687 16.59702,1.57768 24.66005,2.24626 13.94019,1.1559 14.71357,1.33305 15.75,3.60777 2.35483,5.1683 1.73377,5.78503 -9.16005,9.09624 -10.53775,3.20298 -14.6114,4.20836 -35.25,8.69972 -14.4468,3.14391 -29.88677,10.09399 -38.34662,17.26119 -3.10936,2.63426 -6.32838,5.29385 -7.15338,5.91021 -1.16514,0.87047 -10.05152,-1.39858 -39.80655,-10.1642 z"
       id="path13079"
       transform="scale(0.26458333)" />
    <path
       style="opacity:1;fill:#ffd38c;fill-opacity:1;stroke:#000000;stroke-width:0;stroke-miterlimit:4;stroke-dasharray:none;stroke-opacity:1"
       d="m 635.23419,431.5855 c -0.9179,-1.55573 -1.96501,-2.15873 -8.88734,-5.11792 -7.41689,-3.17061 -8.13452,-3.37633 -13.09685,-3.75437 -2.8875,-0.21998 -6.31311,-0.41419 -7.61246,-0.43158 l -2.36246,-0.0316 -1.08961,-3.75 c -0.59928,-2.0625 -1.23134,-3.75 -1.40458,-3.75 -0.17323,0 -4.01213,1.2375 -8.53089,2.75 -4.51876,1.5125 -8.45831,2.75 -8.75455,2.75 -0.52879,0 -6.47206,-13.94005 -6.10133,-14.31079 0.1888,-0.1888 71.92114,20.75879 72.31141,21.1167 0.11304,0.10366 -0.0781,1.37099 -0.42487,2.81629 l -0.6304,2.6278 -2.57513,0.004 c -1.41632,0.002 -4.20082,0.1931 -6.18779,0.42451 l -3.61265,0.42073 -1.0405,-1.76352 z"
       id="path15284"
       transform="scale(0.26458333)" />
    <path
       style="opacity:1;fill:#ffeac8;fill-opacity:1;stroke:#000000;stroke-width:0;stroke-miterlimit:4;stroke-dasharray:none;stroke-opacity:1"
       d="m 486.74723,372.68781 c -24.33903,-6.92025 -43.91403,-12.90195 -43.5,-13.29267 0.41402,-0.39073 19.86333,-11.5079 43.22068,-24.70482 l 42.4679,-23.99442 8.84286,21.65205 c 4.86357,11.90863 8.89269,22.32705 8.9536,23.15205 0.0915,1.2391 -15.01247,30.24912 -15.55953,29.88504 -0.095,-0.0632 -20.08649,-5.77698 -44.42551,-12.69723 z"
       id="path15323"
       transform="scale(0.26458333)" />
    <path
       style="opacity:1;fill:#ffeac8;fill-opacity:1;stroke:#000000;stroke-width:0;stroke-miterlimit:4;stroke-dasharray:none;stroke-opacity:1"
       d="m 550.25542,390.6563 -11.74458,-3.48348 3.34956,-6.08641 c 1.84227,-3.34752 4.61308,-8.4521 6.15737,-11.34349 l 2.8078,-5.25708 5.8397,14.24962 c 3.21183,7.8373 5.72608,14.50944 5.58721,14.82698 -0.13886,0.31754 -5.53754,-0.99022 -11.99706,-2.90614 z"
       id="path18564"
       transform="scale(0.26458333)" />
    <path
       style="opacity:1;fill:#ffeac8;fill-opacity:1;stroke:#000000;stroke-width:0;stroke-miterlimit:4;stroke-dasharray:none;stroke-opacity:1"
       d="m 507.72087,437.91994 c 1.33699,-2.24052 27.02464,-43.94121 27.18071,-44.12449 0.0958,-0.1125 7.20884,1.86169 15.80675,4.38709 l 15.63257,4.59164 3.59435,8.61291 c 1.97689,4.7371 3.58769,9.07015 3.57955,9.62899 -0.008,0.55884 -14.3023,4.56539 -31.7648,8.90344 -17.4625,4.33805 -32.38632,8.11979 -33.16404,8.40386 -0.77773,0.28407 -1.16702,0.10253 -0.86509,-0.40344 z"
       id="path18603"
       transform="scale(0.26458333)" />
    <path
       style="opacity:1;fill:#ffeac8;fill-opacity:1;stroke:#000000;stroke-width:0;stroke-miterlimit:4;stroke-dasharray:none;stroke-opacity:1"
       d="m 283.59024,512.86756 c -9.57537,-45.57716 -17.57078,-83.32521 -17.76758,-83.88456 -0.31031,-0.88199 67.95038,-11.28733 78.67734,-11.99321 6.74086,-0.44357 14.70468,-1.68924 16.02785,-2.507 1.06956,-0.66103 1.12216,-1.98457 0.26444,-6.65397 -0.58888,-3.20585 -0.91665,-5.99522 -0.72837,-6.19861 0.18828,-0.20338 4.30092,-1.18279 9.1392,-2.17646 8.30891,-1.70646 10.30372,-2.69829 35.96127,-17.88021 14.94041,-8.84045 27.99041,-16.06459 29,-16.05364 1.00958,0.0109 22.31061,5.82394 47.33561,12.91777 31.061,8.80486 45.40296,13.29442 45.19421,14.14746 -0.16818,0.68728 -6.8643,11.89868 -14.88026,24.91422 l -14.57447,23.66463 -27.11974,8.32813 c -14.91586,4.58047 -29.25724,8.96493 -31.86974,9.74323 -2.6125,0.77831 -4.75,1.81291 -4.75,2.29912 0,1.89817 5.53366,9.91319 7.61218,11.02558 2.75802,1.47605 3.49006,6.62575 1.61142,11.33586 -1.57252,3.9426 -5.20036,6.56344 -17.94629,12.96483 -6.75248,3.3913 -9.79649,5.58051 -12.08344,8.69028 -1.68139,2.28634 -5.27521,6.05035 -7.98627,8.36446 -4.6252,3.948 -27.89726,16.09363 -45.2076,23.59373 -19.97192,8.65329 -27.34654,14.68542 -33.87979,27.71228 -2.92244,5.82715 -3.12021,6.91259 -3.12021,17.125 V 593.25 l -3.01373,0.60275 c -1.65756,0.33151 -6.49506,0.89066 -10.75,1.24256 L 301,595.73512 Z"
       id="path18642"
       transform="scale(0.26458333)" />
    <path
       style="opacity:1;fill:#ffffff;fill-opacity:1;stroke:#000000;stroke-width:0;stroke-miterlimit:4;stroke-dasharray:none;stroke-opacity:1"
       d="M 683.10527,480.44273 C 674.5184,470.23782 663.5,450.15003 663.5,444.7001 c 0,-3.19007 2.83094,-12.18939 3.844,-12.21977 0.3608,-0.0108 19.20916,5.02345 41.88525,11.18725 l 41.22926,11.20693 -30.84036,13.65246 c -16.96219,7.50885 -31.5566,13.9273 -32.43202,14.26323 -1.02713,0.39415 -2.47453,-0.43845 -4.08086,-2.34747 z"
       id="path18681"
       transform="scale(0.26458333)" />
    <path
       style="opacity:1;fill:#ffffff;fill-opacity:1;stroke:#000000;stroke-width:0;stroke-miterlimit:4;stroke-dasharray:none;stroke-opacity:1"
       d="m 639.4267,416.09324 c -4.71531,-1.25689 -21.24328,-6.06132 -36.72883,-10.67652 l -28.15553,-8.39126 -8.0825,-19.51273 c -4.44538,-10.732 -8.3114,-20.63773 -8.59117,-22.01273 -0.32285,-1.58676 2.2449,-10.49432 7.02927,-24.3846 4.14586,-12.03653 7.71566,-22.06233 7.93288,-22.27955 0.40439,-0.40439 28.76513,-4.33585 31.27793,-4.33585 1.04192,0 1.39125,1.59061 1.39125,6.33484 0,6.69091 2.78602,16.88377 6.0902,22.28144 3.76978,6.15826 17.55418,18.11647 28.0069,24.29647 18.52193,10.9508 22.58625,11.91038 67.68353,15.9801 19.80435,1.7872 32.84853,3.38441 33.75,4.13257 0.80815,0.67071 1.46937,2.25704 1.46937,3.52518 0,3.04327 -6.14661,5.35211 -28,10.51759 -32.45853,7.67221 -43.62005,12.03337 -55.87746,21.83308 -3.5076,2.8043 -7.3326,5.07139 -8.5,5.03797 -1.1674,-0.0334 -5.98052,-1.08911 -10.69584,-2.346 z"
       id="path22978"
       transform="scale(0.26458333)" />
    <path
       style="opacity:1;fill:#ffffff;fill-opacity:1;stroke:#000000;stroke-width:0;stroke-miterlimit:4;stroke-dasharray:none;stroke-opacity:1"
       d="M 635.1128,430.62464 C 633.09725,428.39749 618.63588,422.5 615.19017,422.5 c -1.32607,0 -4.48343,-0.28405 -7.01636,-0.63123 -4.12635,-0.56558 -4.72096,-0.9816 -5.71712,-4 -0.61149,-1.85282 -1.4144,-3.36202 -1.78424,-3.35376 -0.36985,0.008 -4.27245,1.13319 -8.67245,2.49986 -4.4,1.36667 -8.11817,2.48492 -8.26261,2.48499 -0.38863,2.1e-4 -5.23739,-11.12074 -5.23739,-12.0123 0,-0.66431 36.73554,9.60315 62.11316,17.36043 8.15223,2.49193 8.58749,2.76713 8.13342,5.14242 -0.4457,2.33156 -0.88611,2.50959 -6.20817,2.50959 -4.33153,0 -6.1423,-0.45731 -7.42561,-1.87536 z"
       id="path23017"
       transform="scale(0.26458333)" />
    <path
       style="opacity:1;fill:#ffa07a;fill-opacity:1;stroke:#000000;stroke-width:0;stroke-miterlimit:4;stroke-dasharray:none;stroke-opacity:1"
       d="M 634,413.99578 C 617.32693,409.31803 575.42252,396.75586 574.96476,396.29809 573.88421,395.21754 558.5,355.87745 558.5,354.19485 c 0,-3.38715 14.27257,-44.58547 15.62591,-45.10479 2.1792,-0.83624 29.25133,-4.04616 29.76792,-3.52956 0.26791,0.2679 0.94171,4.11274 1.49736,8.54408 1.31849,10.51522 4.24979,18.13794 9.08897,23.63554 8.75054,9.94114 27.95891,23.3485 39.79564,27.77718 9.19531,3.44041 18.2929,4.91862 49.49188,8.04159 36.02473,3.60603 37.12858,3.80461 37.55503,6.7559 0.45868,3.17443 -4.34106,5.04998 -28.32271,11.06738 -32.13142,8.06232 -39.82815,11.03828 -53.65226,20.74482 -5.1089,3.58719 -8.59877,5.35015 -10.5,5.30424 C 647.28148,417.39341 640.6,415.84745 634,413.99578 Z"
       id="path24673"
       transform="scale(0.26458333)" />
    <path
       style="opacity:1;fill:#ffa07a;fill-opacity:1;stroke:#000000;stroke-width:0;stroke-miterlimit:4;stroke-dasharray:none;stroke-opacity:1"
       d="m 581.65352,413.87908 c -1.23476,-2.5415 -2.02199,-4.84394 -1.74941,-5.11652 0.27258,-0.27259 5.23954,0.78009 11.03769,2.33928 l 10.54207,2.83489 -8.24193,2.26611 c -4.53307,1.24636 -8.48977,2.27309 -8.79267,2.28163 -0.30291,0.009 -1.561,-2.06388 -2.79575,-4.60539 z"
       id="path28543"
       transform="scale(0.26458333)" />
    <path
       style="opacity:1;fill:#ffa07a;fill-opacity:1;stroke:#000000;stroke-width:0;stroke-miterlimit:4;stroke-dasharray:none;stroke-opacity:1"
       d="m 637.55965,431.73279 c -0.79219,-0.23719 -1.91719,-0.86871 -2.5,-1.40336 -1.53656,-1.40962 -7.3725,-4.22202 -12.55468,-6.05024 -3.03438,-1.0705 -6.51888,-1.82254 -10.72323,-2.31435 -3.42551,-0.4007 -6.7071,-1.04234 -7.29243,-1.42586 -1.10467,-0.72381 -3.40022,-6.13052 -2.7686,-6.52088 0.19752,-0.12207 1.80366,0.20055 3.56921,0.71694 1.76554,0.51638 9.51008,2.7764 17.21008,5.02226 18.51396,5.39997 24.55601,7.37014 25.5012,8.31533 0.89333,0.89333 0.58539,2.58341 -0.64725,3.55237 -0.90767,0.71351 -7.52793,0.78637 -9.7943,0.10779 z"
       id="path28582"
       transform="scale(0.26458333)" />
    <path
       style="opacity:1;fill:#ffd38c;fill-opacity:1;stroke:#000000;stroke-width:0;stroke-miterlimit:4;stroke-dasharray:none;stroke-opacity:1"
       d="M 683.19328,480.54733 C 674.52397,470.24444 663.5,450.17776 663.5,444.7001 c 0,-3.19007 2.83094,-12.18939 3.844,-12.21977 0.3608,-0.0108 19.26076,5.0375 41.99992,11.21848 28.18551,7.66142 40.75706,11.48434 39.5,12.01167 -1.01416,0.42544 -15.11892,6.66898 -31.34392,13.87453 -16.225,7.20556 -30.00164,13.30895 -30.61475,13.56309 -0.61311,0.25414 -2.2745,-0.9162 -3.69197,-2.60077 z"
       id="path28621"
       transform="scale(0.26458333)" />
    <path
       style="opacity:1;fill:#ffd38c;fill-opacity:1;stroke:#000000;stroke-width:0;stroke-miterlimit:4;stroke-dasharray:none;stroke-opacity:1"
       d="m 717,438.5518 c -23.375,-6.43936 -43.11374,-11.91488 -43.86386,-12.16782 -2.32091,-0.7826 3.55415,-6.69968 9.74734,-9.81705 7.84357,-3.9481 22.86379,-8.593 35.72641,-11.04815 24.63183,-4.70158 32.02578,-7.45758 37.14011,-13.84347 6.74089,-8.41686 3.20437,-20.23841 -7.44021,-24.87041 -6.12493,-2.66528 -20.95787,-5.30208 -29.89605,-5.31453 -8.84381,-0.0123 -30.58112,-2.44177 -40.91374,-4.57271 -13.14208,-2.71034 -28.87254,-9.05995 -34.2927,-13.84227 -2.58901,-2.28434 -6.63682,-5.64961 -8.99513,-7.47836 -6.00427,-4.65603 -8.35159,-9.77796 -8.95897,-19.54878 L 623.7529,305 l 11.87355,-4.4057 c 11.66776,-4.32934 18.25403,-0.17501 33.37355,1.87818 19.24559,2.6135 17.23573,3.91262 28.5,5.27495 l 24.5,-1.0089 0.5,3.00165 c 2.36743,14.21238 59.13909,14.12382 59.30909,14.27315 0.34917,0.30669 -6.48656,107.14002 -7.37068,115.19383 -0.56656,5.16104 -0.61901,5.22888 -5.91911,7.65534 -2.94111,1.34649 -6.17364,2.66169 -7.18339,2.92267 C 760.32616,450.04618 740.375,444.99115 717,438.5518 Z"
       id="path30123"
       transform="scale(0.26458333)"
       sodipodi:nodetypes="ssssssssssscssscssssss" />
    <path
       style="opacity:1;fill:#ffd38c;fill-opacity:1;stroke:#000000;stroke-width:0;stroke-miterlimit:4;stroke-dasharray:none;stroke-opacity:1"
       d="m 783.25331,383.80798 c 2.08857,-31.73061 3.96855,-57.86317 4.17773,-58.07235 0.20918,-0.20918 5.03527,0.38307 10.72464,1.31611 l 10.34432,1.69644 48,-4.59261 c 26.4,-2.52593 66.675,-5.73654 89.5,-7.13468 22.825,-1.39813 43.79093,-2.78574 46.59096,-3.08356 l 5.09095,-0.5415 5.31049,-37.34263 5.3106,-37.34263 21.1841,18.87018 c 20.4492,18.21545 21.5455,19.38588 31.5985,33.73348 8.8878,12.68453 11.9923,16.22851 21.179,24.17664 5.9205,5.12233 10.6435,9.43437 10.4956,9.5823 -0.4595,0.45949 -73.314,22.72397 -138.96554,42.46812 l -62.70533,18.85812 -26.29467,12.62125 c -14.46206,6.94169 -39.50684,19.33933 -55.65507,27.5503 -16.14822,8.21097 -29.43314,14.92904 -29.52204,14.92904 -0.0889,0 1.54719,-25.96141 3.63576,-57.69202 z"
       id="path30162"
       transform="scale(0.26458333)" />
    <path
       style="opacity:1;fill:#d2b48c;fill-opacity:1;stroke:#000000;stroke-width:0;stroke-miterlimit:4;stroke-dasharray:none;stroke-opacity:1"
       d="m 909.47776,534.10639 c -2.32002,-3.54078 -22.31525,-14.76528 -31.97776,-17.951 -4.4,-1.45067 -13.56478,-3.74387 -20.36618,-5.096 -6.8014,-1.35213 -12.52343,-2.61567 -12.71562,-2.80786 -0.19219,-0.19218 5.79306,-7.463 13.30054,-16.15737 l 13.64998,-15.80793 10.06564,0.61788 c 5.5361,0.33983 32.56564,1.52085 60.06564,2.62449 27.5,1.10364 51.10348,2.11119 52.45218,2.23901 1.83912,0.17429 -7.9038,6.94908 -38.97075,27.09849 -22.78262,14.77635 -41.9651,27.07414 -42.62775,27.32842 -0.66264,0.25428 -1.95681,-0.68538 -2.87592,-2.08813 z"
       id="path30201"
       transform="scale(0.26458333)" />
    <path
       style="opacity:1;fill:#d2b48c;fill-opacity:1;stroke:#000000;stroke-width:0;stroke-miterlimit:4;stroke-dasharray:none;stroke-opacity:1"
       d="m 819.72159,546.85693 c 0.37348,-0.67835 19.83806,-33.45882 20.18726,-33.99755 0.32578,-0.50259 32.20336,6.87715 37.01323,8.56866 11.50979,4.0477 30.5157,15.83211 28.35146,17.57901 -0.61675,0.49781 -16.35919,5.49295 -17.31134,5.49295 -0.56704,0 -1.83447,-1.36018 -2.8165,-3.02263 -2.49005,-4.21532 -14.09684,-9.97737 -20.09791,-9.97737 -4.91618,0 -15.18442,3.50618 -23.04779,7.86988 -8.58969,4.76676 -23.54851,9.79394 -22.27841,7.48705 z"
       id="path32739"
       transform="scale(0.26458333)" />
    <path
       style="opacity:1;fill:#d2b48c;fill-opacity:1;stroke:#000000;stroke-width:0;stroke-miterlimit:4;stroke-dasharray:none;stroke-opacity:1"
       d="m 940,472.81089 c -32.175,-1.33541 -59.53332,-2.64046 -60.79626,-2.90011 l -2.29626,-0.47211 2.11269,-2.967 c 3.87698,-5.44471 9.83169,-8.65923 18.5127,-9.99368 9.64033,-1.48191 26.42563,-1.53038 35.96713,-0.10385 l 7,1.04655 16.85817,-8.99654 c 9.27199,-4.9481 19.4848,-10.78025 22.69513,-12.96034 3.21033,-2.1801 6.61754,-3.96381 7.57157,-3.96381 0.95404,0 6.68019,1.18254 12.72483,2.62786 9.7109,2.32198 11.1192,2.45133 12.0991,1.11121 0.9143,-1.25026 3.3225,1.23021 13.7107,14.12214 L 1038.7611,465 l -15.6068,5.25 c -10.6212,3.5729 -17.0519,5.2083 -20.1305,5.11945 -2.4881,-0.0718 -30.8488,-1.22315 -63.0238,-2.55856 z"
       id="path32778"
       transform="scale(0.26458333)" />
    <path
       style="opacity:1;fill:#f0e68c;fill-opacity:1;stroke:#000000;stroke-width:0;stroke-miterlimit:4;stroke-dasharray:none;stroke-opacity:1"
       d="m 825,503.92469 c -7.425,-1.84045 -16.425,-3.65332 -20,-4.0286 -8.72645,-0.91605 -9.57364,-1.30604 -17.24959,-7.94065 -5.80077,-5.01384 -6.78068,-6.36934 -7.69861,-10.64949 C 779.47331,478.60854 779,473.32716 779,469.56956 v -6.832 l 19.75656,5.76453 c 19.35795,5.64822 20.07923,5.77748 35.75,6.40697 8.79639,0.35335 19.45596,0.90049 23.68793,1.21587 l 7.6945,0.5734 -13.01397,15.15084 c -7.15768,8.33295 -13.32021,15.2118 -13.6945,15.28631 -0.37428,0.0745 -6.75552,-1.37034 -14.18052,-3.21079 z"
       id="path32963"
       transform="scale(0.26458333)" />
    <path
       style="opacity:1;fill:#f0e68c;fill-opacity:1;stroke:#000000;stroke-width:0;stroke-miterlimit:4;stroke-dasharray:none;stroke-opacity:1"
       d="m 790.35144,547.92013 c -15.48288,-2.00198 -40.70044,-13.66827 -59.52968,-27.53997 -7.22158,-5.32021 -30.14042,-24.06032 -36.67665,-29.98951 l -4.8549,-4.40399 33.47309,-14.7855 33.47309,-14.78549 8.3818,2.32339 8.38181,2.3234 0.6142,9.46877 c 0.98733,15.22102 1.99956,17.78158 9.72281,24.59494 3.66464,3.23291 7.34002,6.403 8.16751,7.04464 0.82748,0.64164 5.32748,1.68338 10,2.31498 9.1434,1.23594 33.99548,6.85365 33.99548,7.68454 0,0.27765 -4.8167,8.53403 -10.70379,18.3475 l -10.70378,17.84267 -7.69478,0.31975 c -4.23212,0.17586 -11.45292,-0.16619 -16.04621,-0.76012 z"
       id="path34946"
       transform="scale(0.26458333)" />
    <path
       style="opacity:1;fill:#f0e68c;fill-opacity:1;stroke:#000000;stroke-width:0;stroke-miterlimit:4;stroke-dasharray:none;stroke-opacity:1"
       d="m 838.5,468.39534 c -17.39857,-0.79823 -17.62129,-0.83793 -38.42783,-6.84911 -11.5103,-3.32543 -21.0728,-6.04623 -21.25,-6.04623 -1.03709,0 -0.0815,-8.09783 1.09437,-9.27369 1.73011,-1.73011 56.23578,-29.28245 89.09071,-45.03491 l 24.00726,-11.5104 64.99274,-19.57276 C 993.75326,359.34321 1040.325,345.23086 1061.5,338.74744 l 38.5,-11.78803 31,7.12624 c 28.2823,6.5015 33.4028,8.01758 58.4083,17.29382 l 27.4084,10.16759 15.7782,11.22647 15.7782,11.22647 -21.1866,4.20823 c -11.6525,2.31452 -22.9865,4.27847 -25.1865,4.36433 -2.2,0.0859 -15.7,-1.73093 -30,-4.03732 l -26,-4.19343 -24.2957,-8.9209 -24.2957,-8.92091 h -10.7858 -10.7858 l -33.6685,21.59156 c -27.1644,17.42049 -33.6682,22.00853 -33.6671,23.75 0,2.7035 2.6211,17.59517 3.4802,19.78574 0.5482,1.39788 -1.0268,1.22697 -11.1717,-1.21224 -6.49544,-1.56175 -12.7147,-2.85654 -13.82058,-2.8773 -1.10587,-0.0208 -5.01079,1.97486 -8.6776,4.43474 -3.66681,2.45987 -13.79618,8.29092 -22.5097,12.95787 l -15.84276,8.48538 -12.79967,-1.13488 c -9.75144,-0.86462 -15.58122,-0.84874 -24.47962,0.0667 -14.73685,1.516 -20.406,4.01944 -26.45039,11.68021 L 872,469.38837 l -8,-0.0951 c -4.4,-0.0523 -15.875,-0.45637 -25.5,-0.89796 z"
       id="path34985"
       transform="scale(0.26458333)" />
    <path
       style="opacity:1;fill:#b3de69;fill-opacity:1;stroke:#000000;stroke-width:0;stroke-miterlimit:4;stroke-dasharray:none;stroke-opacity:1"
       d="M 168.64947,346.24152 C 168.33601,344.45868 164.89948,320.5 161.01275,293 l -7.0668,-50 -4.53405,-9.7675 -4.53406,-9.7675 2.4942,-12.31209 c 1.913,-9.44312 2.28233,-13.22564 1.58494,-16.2325 -0.5001,-2.15623 -0.92,-5.62341 -0.93312,-7.70485 L 148,183.43111 l 4.85398,0.64391 c 4.39667,0.58324 5.48707,0.28028 11.57368,-3.21556 L 171.14736,177 170.6081,173 c -0.29659,-2.2 -1.27583,-11.49869 -2.17609,-20.66375 l -1.63682,-16.66375 7.71281,-12.52549 7.71281,-12.52549 8.8965,-3.56076 c 4.89307,-1.95842 9.25645,-3.56076 9.6964,-3.56076 0.43995,0 2.27495,3.04906 4.07778,6.77569 3.94919,8.16339 4.15182,6.50558 -5.40538,44.22431 l -6.46121,25.5 28.73755,61.63348 28.73755,61.63347 22.72823,11.33829 c 12.50053,6.23606 22.40053,11.62098 22,11.96649 -0.94696,0.81689 -41.40297,8.28504 -86.22823,15.91768 -19.525,3.32462 -36.46313,6.25826 -37.6403,6.5192 -1.7695,0.39223 -2.23904,-0.0872 -2.71023,-2.76709 z"
       id="path35024"
       transform="scale(0.26458333)" />
    <path
       style="opacity:1;fill:#a9c6c2;fill-opacity:1;stroke:#000000;stroke-width:0;stroke-miterlimit:4;stroke-dasharray:none;stroke-opacity:1"
       d="M 173.5,610.41488 158,596.34094 148.81186,580.17047 139.62372,564 131.81186,559.47893 124,554.95786 l -2.61728,-7.97893 c -2.40206,-7.32283 -2.51053,-8.34896 -1.31913,-12.47893 5.22608,-18.11611 15.2092,-56.08538 19.45656,-74 4.46987,-18.85313 5.95678,-23.39673 12.07788,-36.90677 6.70756,-14.80442 7.19726,-16.4269 12.52571,-41.5 3.04988,-14.35127 5.61972,-26.14491 5.71075,-26.20808 0.20817,-0.14445 129.68441,-24.47607 131.49961,-24.71185 0.81749,-0.10619 9.42964,15.72915 22.23963,40.89246 l 20.90553,41.06577 -41.23963,5.85097 c -22.6818,3.21803 -41.37827,5.95208 -41.54773,6.07566 -0.16945,0.12359 7.87003,38.99657 17.86552,86.38442 9.99548,47.38785 18.00912,86.30012 17.80809,86.47171 -0.20103,0.17159 -16.11551,2.86222 -35.36551,5.97918 -19.25,3.11695 -42.25453,7.09335 -51.12117,8.83644 l -16.12117,3.16924 -2.72066,4.30043 c -1.49636,2.36523 -2.79183,4.2979 -2.87882,4.29483 -0.087,-0.003 -7.13318,-6.33887 -15.65818,-14.07953 z"
       id="path38715"
       transform="scale(0.26458333)" />
    <path
       style="opacity:1;fill:#aee0f3;fill-opacity:1;stroke:#000000;stroke-width:0;stroke-miterlimit:4;stroke-dasharray:none;stroke-opacity:1"
       d="m 327.61001,371.72798 c -11.39544,-22.79878 -20.47594,-41.69538 -20.17889,-41.99244 0.29706,-0.29705 3.35908,0.34491 6.80449,1.42659 3.44541,1.08167 30.22567,8.6877 59.51167,16.90228 29.286,8.21457 53.24851,15.21636 53.25,15.55951 0.001,0.34316 -11.45265,7.39719 -25.45365,15.67563 -24.61328,14.55321 -25.77375,15.1162 -35.03971,16.99912 -5.27083,1.07108 -9.86568,2.22975 -10.21075,2.57483 -0.34508,0.34508 -0.15207,3.21471 0.42891,6.37696 0.58098,3.16225 0.9567,5.86152 0.83494,5.99839 -0.12177,0.13687 -2.24788,0.62745 -4.72471,1.09017 l -4.50331,0.84131 z"
       id="path43479"
       transform="scale(0.26458333)" />
    <path
       style="opacity:1;fill:#aee0f3;fill-opacity:1;stroke:#000000;stroke-width:0;stroke-miterlimit:4;stroke-dasharray:none;stroke-opacity:1"
       d="m 380.76229,342.75599 c -30.38074,-8.58765 -55.03008,-15.82153 -54.77631,-16.0753 0.25377,-0.25377 36.77281,-7.33721 81.15344,-15.74098 l 80.69204,-15.27959 5.18082,4.22027 c 4.61355,3.75817 6.3747,4.47324 16.08427,6.5306 5.9969,1.27068 11.44881,2.60632 12.11535,2.9681 0.95409,0.51784 -83.46398,49.31658 -84.86286,49.05585 -0.19197,-0.0358 -25.20601,-7.09131 -55.58675,-15.67895 z"
       id="path46535"
       transform="scale(0.26458333)" />
    <path
       style="opacity:1;fill:#aee0f3;fill-opacity:1;stroke:#000000;stroke-width:0;stroke-miterlimit:4;stroke-dasharray:none;stroke-opacity:1"
       d="M 278.0263,312.72486 253.05259,300 225.28513,240.5 c -15.2721,-32.725 -27.77143,-60.27051 -27.77629,-61.21224 -0.005,-0.94173 2.87253,-13.31673 6.3942,-27.5 8.53239,-34.36353 8.63177,-35.29484 4.61552,-43.25099 -1.74453,-3.4559 -2.79988,-6.60234 -2.34522,-6.99209 0.45466,-0.38975 3.16537,-1.649426 6.0238,-2.799274 4.97191,-2.000032 6.44536,-2.067864 34,-1.565236 L 275,97.705567 308.25,114.03926 c 25.26263,12.40999 33.25767,16.76934 33.28192,18.14722 0.0176,0.99744 0.87887,10.26383 1.91403,20.592 1.80687,18.02779 2.01396,18.98721 5.18051,24 4.79803,7.59551 44.9789,68.0691 45.88921,69.06484 0.42403,0.46382 8.58147,3.0868 18.12765,5.82883 15.80838,4.54078 19.04166,5.88567 36.2456,15.07646 14.83408,7.92474 20.5728,11.59659 26.73301,17.10482 4.31425,3.85764 7.72967,7.1283 7.58983,7.26814 -0.13983,0.13984 -39.84469,7.7391 -88.233,16.88724 C 346.59044,317.15695 306.1,324.82358 305,325.04576 c -1.1924,0.24084 -12.08441,-4.73435 -26.9737,-12.3209 z"
       id="path46574"
       transform="scale(0.26458333)" />
    <path
       style="opacity:1;fill:#ffd38c;fill-opacity:1;stroke:#000000;stroke-width:0;stroke-miterlimit:4;stroke-dasharray:none;stroke-opacity:1"
       d="m 756,448.43563 c -16.65394,-3.75066 -83,-22.14139 -83,-23.00709 0,-1.13034 2.98271,-4.09039 6.41844,-6.36968 7.59603,-5.03925 23.38217,-10.1918 43.08156,-14.06169 19.15597,-3.76313 26.89666,-6.55109 31.70705,-11.41995 3.77563,-3.82151 5.01558,-6.60305 5.02261,-11.26706 0.009,-6.10441 -2.93039,-11.20957 -8.29717,-14.40967 -5.67544,-3.38413 -18.23359,-5.88975 -33.42154,-6.6683 -10.80143,-0.5537 -24.56863,-1.98615 -33.76095,-3.51276 -11.99885,-1.99271 -22.24772,-5.182 -32,-9.95791 -5.00466,-2.4509 -7.16123,-3.90932 -13,-8.79144 -8.10023,-6.77306 -10.36532,-9.50512 -11.72909,-14.1472 -1.12868,-3.84182 -2.7312,-16.62263 -2.26744,-18.0838 0.20004,-0.6303 0.0841,-0.98908 -0.31978,-0.98908 -1.42709,0 0.61933,-0.98649 6.59792,-3.18057 l 6.28161,-2.30528 10.71839,0.50372 c 10.31972,0.48498 11.43439,0.64429 29.96839,4.28319 l 19.25,3.77947 6.75,-0.29773 c 3.7125,-0.16375 9.28125,-0.42906 12.375,-0.58959 5.17251,-0.26838 5.625,-0.22015 5.625,0.5996 0,0.49031 0.44537,1.80625 0.9897,2.92433 3.24337,6.66193 18.93398,10.73033 47.5103,12.31888 5.9125,0.32868 10.84051,0.67678 10.95111,0.77357 0.34052,0.29795 -4.9381,84.63065 -6.72177,107.38894 -0.47216,6.02436 -1.05281,10.47665 -1.47207,11.28741 -0.48757,0.94285 -2.01231,1.95215 -5.15496,3.41228 -6.85209,3.18362 -6.27876,3.09894 -12.10231,1.78741 z"
       id="path47352"
       transform="scale(0.26458333)" />
    <path
       style="opacity:1;fill:#ffd38c;fill-opacity:1;stroke:#000000;stroke-width:0;stroke-miterlimit:4;stroke-dasharray:none;stroke-opacity:1"
       d="m 771.25,323.42272 c -27.99276,-1.89824 -41.56578,-5.00025 -46.68828,-10.67025 -2.03956,-2.25754 -2.25093,-3.00247 -0.85192,-3.00247 0.77136,0 38.29393,8.93817 54.5402,12.9919 l 3.75,0.9357 -4.25,-0.0512 c -2.3375,-0.0281 -5.2625,-0.11981 -6.5,-0.20372 z"
       id="path49906"
       transform="scale(0.26458333)" />
    <path
       style="opacity:1;fill:#fbcce7;fill-opacity:1;stroke:#000000;stroke-width:0;stroke-miterlimit:4;stroke-dasharray:none;stroke-opacity:1"
       d="m 739.91191,622.12815 c -53.38857,-17.19827 -66.60832,-21.80571 -71.07313,-24.77093 -4.99663,-3.31841 -6.35382,-5.13225 -15.24176,-20.37015 -5.3662,-9.20005 -9.38329,-17.06113 -8.92687,-17.46907 0.45642,-0.40794 13.55867,-9.39543 29.11612,-19.9722 24.82951,-16.8804 28.4957,-19.06991 30,-17.91648 0.94255,0.7227 3.54916,2.95248 5.79246,4.95507 6.2274,5.55917 24.8392,17.74315 32.80862,21.47775 3.91196,1.83321 15.21265,5.91264 25.11265,9.06541 l 18,5.73231 16.65217,0.41898 16.65216,0.41898 13.08605,-4.12568 c 7.19733,-2.26913 14.55385,-4.97571 16.34783,-6.01463 4.43998,-2.57125 13.29262,-5.05751 18.00791,-5.05751 3.73522,0 13.75388,3.56273 13.75388,4.89101 0,0.3546 -1.2265,2.43668 -2.72556,4.62686 -1.49906,2.19017 -7.68656,13.14135 -13.75,24.33596 L 852.5,602.70766 l -11,4.45036 -11,4.45036 -11.21596,14.19581 c -6.16878,7.8077 -11.79378,14.92848 -12.5,15.82396 -1.15994,1.47079 -7.62291,-0.41382 -66.87213,-19.5 z"
       id="path6401"
       transform="scale(0.26458333)" />
  </g>
  <g
     inkscape:groupmode="layer"
     id="layer4"
     inkscape:label="WATERWAY"
     sodipodi:insensitive="true">
    <path
       style="fill:#c5ecff;fill-opacity:1;stroke:#000000;stroke-width:0.264583px;stroke-linecap:butt;stroke-linejoin:miter;stroke-opacity:1"
       d="m 220.39791,-0.26458333 5.02709,0.79374999 -0.79375,5.29166664 0.52916,4.6302087 1.5875,5.159374 0.52917,4.7625 -0.52917,4.7625 -2.77812,4.233333 -5.15938,2.381251 -5.02708,0.264583 h -6.35 -6.87917 l -6.08541,-0.264584 -3.96876,0.396875 -1.71978,2.645834 1.19062,4.101042 3.43958,10.583333 2.64584,6.614583 1.85208,7.408333 v 6.085417 l -1.85208,6.085416 -1.5875,3.042709 -3.175,2.513541 -6.87917,0.264584 -10.05417,-1.984375 -6.2177,-0.264584 -2.91042,1.190625 -4.63021,-0.529166 2.51354,-2.645833 2.38125,-1.587501 5.95313,-0.529166 3.96875,0.529166 4.7625,1.058334 3.175,1.322916 4.23333,0.264584 3.70417,-1.852084 2.11666,-3.704166 0.79375,-3.96875 v -4.497917 l -1.05833,-4.497916 -1.85208,-6.35 -2.38125,-5.55625 -1.5875,-5.027084 -1.05834,-5.291666 -0.79375,-3.704167 0.26459,-2.645833 2.64583,-2.645833 4.49792,-0.79375 h 3.43958 l 5.02708,0.529166 5.55625,0.529167 7.14375,0.529167 h 3.43959 l 3.70416,-2.116667 1.32292,-2.910417 -0.52917,-4.233333 -0.52916,-3.96875 -0.79375,-3.704166 -0.92605,-2.5135417 -0.13229,-4.3656254 V 3.175 Z"
       id="path23041"
       sodipodi:nodetypes="cccccccccccccccccccccccccccccccccccccccccccccccccccccccccccccc" />
    <path
       style="fill:#c6ecff;fill-opacity:1;stroke:#000000;stroke-width:0.264583px;stroke-linecap:butt;stroke-linejoin:miter;stroke-opacity:1"
       d="m 172.77291,111.25729 3.43959,-2.91042 3.04271,-1.5875 3.0427,-1.19062 3.43959,-0.79375 3.43958,-0.66146 3.04271,-0.79375 2.64583,-0.79375 2.11667,-0.66146 v -1.32291 l -0.66146,-1.322921 -5.29167,-0.529167 -2.24895,-0.132292 -3.43959,-0.264583 -3.83646,-0.529167 -3.57187,-0.132291 -4.10104,-1.058334 -2.77813,-1.322916 -2.91041,-1.852084 -2.64584,-1.719791 -1.98437,-2.248958 -1.71979,-1.852084 -0.79375,-2.38125 -0.52917,-2.248958 0.26458,-2.778125 4.36563,0.926042 -0.13229,2.513541 0.52916,2.645834 1.05834,1.984375 2.64583,1.984375 1.98437,1.852083 5.55625,2.116666 4.36563,0.926042 6.08542,0.661458 h 3.0427 l 2.38125,0.264584 2.51355,0.529166 1.85208,0.264584 2.11667,1.058333 1.32291,1.719792 0.13229,2.778126 -1.71979,2.11667 -3.04271,1.32291 -2.91041,0.66146 -4.49792,0.79375 -3.83646,1.05833 -3.30729,1.19063 -2.38125,1.32292 -1.19062,1.4552 -0.26459,0.66146 z"
       id="path27799" />
    <path
       style="fill:#c6ecff;fill-opacity:1;stroke:#000000;stroke-width:0.264583px;stroke-linecap:butt;stroke-linejoin:miter;stroke-opacity:1"
       d="m 176.21249,114.16771 -0.79375,2.38125 10e-6,2.24896 1.05833,2.51353 1.98438,3.17501 1.98438,2.77812 2.91041,2.64583 2.91041,2.51354 2.64584,2.11667 3.04271,2.51355 3.30729,2.38125 3.83645,2.38125 3.83646,1.5875 4.10105,1.5875 4.23333,0.52916 4.49792,-0.13229 3.175,-0.66146 3.04271,-1.19062 1.98437,-1.19063 2.38125,-0.92604 1.71979,-0.52917 h 1.7198 l 2.11666,0.92604 1.45521,0.79376 1.45521,2.11666 -1.32292,1.71979 -1.45521,-0.92604 -2.11667,-0.79375 -2.24895,0.26458 -2.38125,0.66146 -1.7198,0.92604 -2.24895,0.79375 -2.51355,0.79375 -1.98437,0.66146 -3.57188,0.13229 h -3.0427 l -2.77813,-0.52916 -3.43958,-1.05834 -2.91042,-0.92604 -2.91042,-0.92604 -3.57187,-1.71979 -3.175,-2.11667 -2.64583,-1.85208 -2.24896,-1.98438 -1.85209,-1.98437 -2.24895,-1.45521 -2.11667,-2.11667 -1.98438,-2.24895 -2.38124,-2.64583 -1.85209,-3.04271 -1.71979,-3.30729 -0.79375,-2.24896 -0.39688,-2.51355 0.52917,-1.4552 0.52917,-1.98438 z"
       id="path31532"
       sodipodi:nodetypes="cccccccccccccccccccccccccccccccccccccccccccccccccccccccc" />
    <path
       style="fill:#c6ecff;fill-opacity:1;stroke:#000000;stroke-width:0.264583px;stroke-linecap:butt;stroke-linejoin:miter;stroke-opacity:1"
       d="m 225.95416,160.07291 3.3073,6.35 4.36562,6.08542 4.89479,3.83646 5.68854,3.83646 6.35,3.57187 3.57188,2.91042 2.77812,4.10104 2.38125,4.36563 1.19063,4.89479 2.51354,5.68854 5.55625,9.65729 4.7625,8.33438 5.15937,8.33437 3.83646,8.46667 2.77813,7.80521 1.85208,4.23333 0.92604,3.04271 1.45521,1.32291 2.24896,0.66146 2.24896,-0.52916 2.38125,-0.1323 2.24896,0.39688 2.77812,1.32292 7.54063,4.7625 8.59895,5.29166 6.4823,3.57188 5.95312,2.24895 5.29167,2.11667 3.70416,2.51354 2.51355,2.91042 2.77812,3.96875 3.175,4.7625 2.38125,3.83646 1.5875,3.04271 1.45521,2.11666 3.30729,0.26459 -2.38125,-4.10105 -2.11667,-3.30729 -2.11666,-3.04271 -2.11667,-4.36562 -2.51354,-3.04271 -2.38125,-2.77812 -2.11667,-2.51355 -2.64583,-2.24895 -3.83646,-2.11667 -4.49792,-1.5875 -3.83645,-1.85208 -3.70417,-2.11667 -4.10104,-2.64583 -6.74688,-3.57188 -3.96875,-1.98437 -2.64583,-2.11667 -3.175,-1.32292 -2.64583,-0.92604 -2.24896,0.26459 h -2.11667 l -1.5875,0.13229 -1.32292,-0.13229 -1.05833,-1.5875 -3.43958,-10.45105 -3.175,-7.14375 -2.91042,-4.6302 -2.51354,-5.42396 -3.83646,-5.55625 -3.70417,-5.82084 -3.30729,-6.2177 -3.175,-6.08542 -2.11666,-5.95313 -1.19063,-3.83645 -2.11666,-4.10105 -1.85209,-3.175 -3.43958,-2.51354 -3.30729,-2.11666 -3.70417,-2.24896 -3.57187,-2.38125 -3.175,-2.38125 -3.04271,-2.24896 -3.04271,-3.04271 -2.51354,-3.30729 -1.71979,-3.30729 0.13229,-2.24896 1.71979,-3.175 1.05833,-3.04271 1.5875,-2.77812 1.32292,-1.7198 0.52917,-1.85208 -0.92605,-1.5875 z"
       id="path2925" />
  </g>
  <g
     inkscape:groupmode="layer"
     id="layer5"
     inkscape:label="CANAL"
     style="display:inline"
     sodipodi:insensitive="true">
    <path
       style="fill:none;stroke:#062a78;stroke-width:2.065;stroke-linecap:butt;stroke-linejoin:miter;stroke-miterlimit:4;stroke-dasharray:none;stroke-opacity:1"
       d="m 192.88125,0 -22.48959,35.454166 -33.3375,30.427083 -0.52916,2.38125 v 2.38125 l 29.63333,72.760411 8.46667,14.55209 3.175,2.11666 51.85833,16.66875 58.20834,88.63542 46.30208,26.72291 c 2.29305,3.88056 4.23333,7.67292 4.23333,7.67292"
       id="path185"
       sodipodi:nodetypes="cccccccccccc" />
  </g>
  <g
     inkscape:groupmode="layer"
     id="layer6"
     inkscape:label="MOTORWAYS"
     sodipodi:insensitive="true">
    <path
       style="fill:none;stroke:#646464;stroke-width:1.565;stroke-linecap:butt;stroke-linejoin:miter;stroke-miterlimit:4;stroke-dasharray:none;stroke-opacity:1"
       d="m 203.46458,0 -12.43542,19.05 -2.64583,5.55625 -30.1625,34.395833 -11.90625,34.395832 -5.29167,9.789585 -40.48124,65.61666 -3.704171,11.64167 -5.55625,13.75833 -1.852083,15.08125 -0.79375,11.90625 -1.322917,13.49375 -2.910417,14.55209 -15.610417,50.53541"
       id="path3656"
       sodipodi:nodetypes="cccccccccccccc" />
    <path
       style="fill:none;stroke:#646464;stroke-width:1.065;stroke-linecap:butt;stroke-linejoin:miter;stroke-miterlimit:4;stroke-dasharray:none;stroke-opacity:1"
       d="M 158.48541,59.795833 142.875,73.818749 138.90625,75.670832 0.52916666,101.86458"
       id="path7128" />
    <path
       style="fill:none;stroke:#646464;stroke-width:1.565;stroke-linecap:butt;stroke-linejoin:miter;stroke-miterlimit:4;stroke-dasharray:none;stroke-opacity:1"
       d="m 82.549999,86.518749 58.208331,16.404171 33.3375,9.78958 30.95625,8.46667 11.90625,3.43958 142.61042,5.55625"
       id="path10528"
       sodipodi:nodetypes="cccccc" />
    <path
       style="fill:none;stroke:#646464;stroke-width:1.065;stroke-linecap:butt;stroke-linejoin:miter;stroke-miterlimit:4;stroke-dasharray:none;stroke-opacity:1"
       d="M 306.3875,0.52916633 281.25208,21.43125 l -29.36875,7.672916 -37.83542,9.789584 -1.85208,8.202083 -4.49792,37.306249 -2.38125,35.983338 v 5.29166 l 0.79375,3.43959 1.5875,1.32291 2.38125,2.11667 4.23334,0.52916 10.05416,2.38125 5.55625,1.05834 3.96875,1.32291 5.55625,3.175 8.20209,9.26042 6.08541,10.05417 7.9375,11.37708 30.1625,64.29375 57.94375,34.66041 9.26042,29.10417"
       id="path13175"
       sodipodi:nodetypes="cccccccccccccccccccccc" />
    <path
       style="fill:none;stroke:#646464;stroke-width:1.065;stroke-linecap:butt;stroke-linejoin:miter;stroke-miterlimit:4;stroke-dasharray:none;stroke-opacity:1"
       d="m 210.07916,0.79374999 12.43542,1.58750001 12.7,1.3229166 5.29167,3.175 8.46666,10.5833334 3.175,11.377083"
       id="path15426" />
    <path
       style="fill:none;stroke:#646464;stroke-width:1.565;stroke-linecap:butt;stroke-linejoin:miter;stroke-miterlimit:4;stroke-dasharray:none;stroke-opacity:1"
       d="M 175.68333,-0.52916666 184.94375,11.1125 192.0875,18.785416"
       id="path17809" />
  </g>
  <g
     inkscape:groupmode="layer"
     id="layer8"
     inkscape:label="TEXT"
     style="display:inline"
     sodipodi:insensitive="true">
    <path
       style="fill:none;stroke:#646464;stroke-width:0.164673;stroke-linecap:butt;stroke-linejoin:miter;stroke-miterlimit:4;stroke-dasharray:none;stroke-opacity:1"
       d="M 0,0.0825 H 360"
       id="path1077" />
    <path
       style="fill:none;stroke:#646464;stroke-width:0.164795;stroke-linecap:butt;stroke-linejoin:miter;stroke-miterlimit:4;stroke-dasharray:none;stroke-opacity:1"
       d="M 0,300.0825 H 360"
       id="path4615" />
    <path
       style="fill:none;stroke:#646464;stroke-width:0.173909;stroke-linecap:butt;stroke-linejoin:miter;stroke-miterlimit:4;stroke-dasharray:none;stroke-opacity:1"
       d="M 0.0869545,0 V 300"
       id="path7163" />
    <path
       style="fill:none;stroke:#646464;stroke-width:0.177663;stroke-linecap:butt;stroke-linejoin:miter;stroke-miterlimit:4;stroke-dasharray:none;stroke-opacity:1"
       d="M 360.0825,0 V 300"
       id="path9362" />
    <text
       xml:space="preserve"
       style="font-weight:bold;font-size:12px;line-height:1.25;font-family:Arial;-inkscape-font-specification:'Arial, Bold';font-variant-ligatures:none;stroke-width:0.264583"
       x="236.00833"
       y="137.05415"
       id="text52557"><tspan
         sodipodi:role="line"
         id="tspan52555"
         style="stroke-width:0.264583"
         x="236.00833"
         y="137.05415">1</tspan></text>
    <text
       xml:space="preserve"
       style="font-weight:bold;font-size:12px;line-height:1.25;font-family:Arial;-inkscape-font-specification:'Arial, Bold';font-variant-ligatures:none;stroke-width:0.264583"
       x="241.82916"
       y="114.03542"
       id="text53833"><tspan
         sodipodi:role="line"
         id="tspan53831"
         style="stroke-width:0.264583"
         x="241.82916"
         y="114.03542">2</tspan></text>
    <text
       xml:space="preserve"
       style="font-weight:bold;font-size:12px;line-height:1.25;font-family:Arial;-inkscape-font-specification:'Arial, Bold';font-variant-ligatures:none;stroke-width:0.264583"
       x="220.13333"
       y="100.54166"
       id="text55105"><tspan
         sodipodi:role="line"
         id="tspan55103"
         style="stroke-width:0.264583"
         x="220.13333"
         y="100.54166">3</tspan></text>
    <text
       xml:space="preserve"
       style="font-weight:bold;font-size:12px;line-height:1.25;font-family:Arial;-inkscape-font-specification:'Arial, Bold';font-variant-ligatures:none;stroke-width:0.264583"
       x="48.683334"
       y="75.67083"
       id="text57617"><tspan
         sodipodi:role="line"
         id="tspan57615"
         style="stroke-width:0.264583"
         x="48.683334"
         y="75.67083">4</tspan></text>
    <text
       xml:space="preserve"
       style="font-weight:bold;font-size:12px;line-height:1.25;font-family:Arial;-inkscape-font-specification:'Arial, Bold';font-variant-ligatures:none;stroke-width:0.264583"
       x="157.95624"
       y="104.24583"
       id="text60087"><tspan
         sodipodi:role="line"
         id="tspan60085"
         style="stroke-width:0.264583"
         x="157.95624"
         y="104.24583">5</tspan></text>
    <text
       xml:space="preserve"
       style="font-weight:bold;font-size:12px;line-height:1.25;font-family:Arial;-inkscape-font-specification:'Arial, Bold';font-variant-ligatures:none;stroke-width:0.264583"
       x="104.24583"
       y="118.79791"
       id="text62511"><tspan
         sodipodi:role="line"
         id="tspan62509"
         style="stroke-width:0.264583"
         x="104.24583"
         y="118.79791">6</tspan></text>
    <text
       xml:space="preserve"
       style="font-weight:bold;font-size:12px;line-height:1.25;font-family:Arial;-inkscape-font-specification:'Arial, Bold';font-variant-ligatures:none;stroke-width:0.264583"
       x="133.34999"
       y="135.99583"
       id="text64143"><tspan
         sodipodi:role="line"
         id="tspan64141"
         style="stroke-width:0.264583"
         x="133.34999"
         y="135.99583">7</tspan></text>
    <text
       xml:space="preserve"
       style="font-weight:bold;font-size:12px;line-height:1.25;font-family:Arial;-inkscape-font-specification:'Arial, Bold';font-variant-ligatures:none;stroke-width:0.264583"
       x="175.68333"
       y="188.38333"
       id="text67139"><tspan
         sodipodi:role="line"
         id="tspan67137"
         style="stroke-width:0.264583"
         x="175.68333"
         y="188.38333">8</tspan></text>
    <text
       xml:space="preserve"
       style="font-weight:bold;font-size:12px;line-height:1.25;font-family:Arial;-inkscape-font-specification:'Arial, Bold';font-variant-ligatures:none;stroke-width:0.264583"
       x="118.79791"
       y="200.02499"
       id="text68947"><tspan
         sodipodi:role="line"
         id="tspan68945"
         style="stroke-width:0.264583"
         x="118.79791"
         y="200.02499">9</tspan></text>
    <text
       xml:space="preserve"
       style="font-weight:bold;font-size:12px;line-height:1.25;font-family:Arial;-inkscape-font-specification:'Arial, Bold';font-variant-ligatures:none;stroke-width:0.264583"
       x="49.212502"
       y="130.43958"
       id="text72053"><tspan
         sodipodi:role="line"
         id="tspan72051"
         style="stroke-width:0.264583"
         x="49.212502"
         y="130.43958">10</tspan></text>
    <text
       xml:space="preserve"
       style="font-weight:bold;font-size:12px;line-height:1.25;font-family:Arial;-inkscape-font-specification:'Arial, Bold';font-variant-ligatures:none;stroke-width:0.264583"
       x="76.993744"
       y="70.379166"
       id="text73755"><tspan
         sodipodi:role="line"
         id="tspan73753"
         style="stroke-width:0.264583"
         x="76.993744"
         y="70.379166">11</tspan></text>
    <rect
       style="display:inline;fill:#ffffff;fill-opacity:1;stroke:#000000;stroke-width:0.465;stroke-miterlimit:4;stroke-dasharray:none;stroke-opacity:1"
       id="rect259-2"
       width="15.345833"
       height="7.6729164"
       x="-220.59109"
       y="158.38278"
       rx="1.3073803"
       ry="0.97417468"
       transform="rotate(-69)" />
    <text
       xml:space="preserve"
       style="font-weight:bold;font-size:6.00001px;line-height:1.25;font-family:Arial;-inkscape-font-specification:'Arial, Bold';font-variant-ligatures:none;display:inline;stroke-width:0.264583"
       x="-217.94528"
       y="164.20361"
       id="text16399-7"
       transform="rotate(-69)"><tspan
         sodipodi:role="line"
         id="tspan16397-0"
         style="stroke-width:0.264583"
         x="-217.94528"
         y="164.20361">117</tspan></text>
    <rect
       style="display:inline;fill:#ffffff;fill-opacity:1;stroke:#000000;stroke-width:0.465;stroke-miterlimit:4;stroke-dasharray:none;stroke-opacity:1"
       id="rect259-2-5"
       width="15.345833"
       height="7.6729164"
       x="67.284859"
       y="160.63126"
       rx="1.3073803"
       ry="0.97417468"
       transform="rotate(-49)" />
    <text
       xml:space="preserve"
       style="font-weight:bold;font-size:6.00001px;line-height:1.25;font-family:Arial;-inkscape-font-specification:'Arial, Bold';font-variant-ligatures:none;display:inline;stroke-width:0.264583"
       x="69.930679"
       y="166.45209"
       id="text16399-7-0"
       transform="rotate(-49)"><tspan
         sodipodi:role="line"
         id="tspan16397-0-0"
         style="stroke-width:0.264583"
         x="69.930679"
         y="166.45209">117</tspan></text>
    <rect
       style="display:inline;fill:#ffffff;fill-opacity:1;stroke:#000000;stroke-width:0.465;stroke-miterlimit:4;stroke-dasharray:none;stroke-opacity:1"
       id="rect259-2-4"
       width="15.345833"
       height="7.6729164"
       x="297.63596"
       y="113.61973"
       rx="1.3073803"
       ry="0.97417468"
       transform="rotate(1)" />
    <text
       xml:space="preserve"
       style="font-weight:bold;font-size:6.00001px;line-height:1.25;font-family:Arial;-inkscape-font-specification:'Arial, Bold';font-variant-ligatures:none;display:inline;stroke-width:0.264583"
       x="300.28177"
       y="119.44055"
       id="text16399-7-4"
       transform="rotate(1)"><tspan
         sodipodi:role="line"
         id="tspan16397-0-6"
         style="stroke-width:0.264583"
         x="300.28177"
         y="119.44055">126</tspan></text>
    <rect
       style="display:inline;fill:#ffffff;fill-opacity:1;stroke:#000000;stroke-width:0.465;stroke-miterlimit:4;stroke-dasharray:none;stroke-opacity:1"
       id="rect259-2-7"
       width="15.345833"
       height="7.6729164"
       x="-10.127368"
       y="90.838158"
       rx="1.3073803"
       ry="0.97417468"
       transform="rotate(-10)" />
    <text
       xml:space="preserve"
       style="font-weight:bold;font-size:6.00001px;line-height:1.25;font-family:Arial;-inkscape-font-specification:'Arial, Bold';font-variant-ligatures:none;display:inline;stroke-width:0.264583"
       x="-9.1368256"
       y="96.904449"
       id="text16399-7-5"
       transform="rotate(-10)"><tspan
         sodipodi:role="line"
         id="tspan16397-0-7"
         style="stroke-width:0.264583"
         x="-9.1368256"
         y="96.904449">1065</tspan></text>
    <rect
       style="display:inline;fill:#ffffff;fill-opacity:1;stroke:#000000;stroke-width:0.465;stroke-miterlimit:4;stroke-dasharray:none;stroke-opacity:1"
       id="rect259-2-7-0"
       width="15.345833"
       height="7.6729164"
       x="292.30206"
       y="-179.3062"
       rx="1.3073803"
       ry="0.97417468"
       transform="rotate(66)" />
    <text
       xml:space="preserve"
       style="font-weight:bold;font-size:6.00001px;line-height:1.25;font-family:Arial;-inkscape-font-specification:'Arial, Bold';font-variant-ligatures:none;display:inline;stroke-width:0.264583"
       x="293.2926"
       y="-173.23991"
       id="text16399-7-5-6"
       transform="rotate(66)"><tspan
         sodipodi:role="line"
         id="tspan16397-0-7-6"
         style="stroke-width:0.264583"
         x="293.2926"
         y="-173.23991">1063</tspan></text>
  </g>
</svg>
