<?xml version="1.0" encoding="UTF-8"?>
<svg xmlns="http://www.w3.org/2000/svg" viewBox="0 0 1331 865" role="img" aria-label="ร่างแนวเขตหมู่ 1 ถึง 11 ตำบลท่าโพธ์">
<style>.v{stroke:#fff;stroke-width:5;stroke-linejoin:round;fill-opacity:.5}.label{font:700 28px Tahoma,sans-serif;text-anchor:middle;dominant-baseline:middle;fill:#173b31;stroke:white;stroke-width:8;paint-order:stroke}</style>
<rect width="100%" height="100%" fill="none"/>
<g data-village-id="1"><path class="v" d="M952.0,364.0 L876.0,345.0 L819.0,306.0 L706.0,325.0 L706.0,365.0 L696.0,466.0 L763.0,474.0 L906.0,455.0 L932.0,413.0 L952.0,364.0 Z" fill="#d8b284"/><text class="label" x="808.8" y="394.7">1</text></g>
<g data-village-id="2"><path class="v" d="M776.0,180.0 L825.0,297.0 L883.0,335.0 L959.0,354.0 L1067.0,298.0 L1096.0,275.0 L1106.0,280.0 L1110.0,252.0 L928.0,246.0 L794.0,199.0 L802.0,194.0 L929.0,234.0 L1100.0,244.0 L1090.0,234.0 L1100.0,205.0 L1120.0,180.0 L1153.0,165.0 L1225.0,191.0 L1267.0,175.0 L1279.0,150.0 L1270.0,115.0 L1250.0,95.0 L1221.0,85.0 L1118.0,105.0 L1052.0,92.0 L927.0,92.0 L806.0,80.0 L786.0,120.0 L776.0,180.0 Z" fill="#f3e884"/><text class="label" x="986.0" y="191.6">2</text></g>
<g data-village-id="3"><path class="v" d="M625.0,56.0 L615.0,114.0 L621.0,114.0 L626.0,121.0 L620.0,126.0 L611.0,127.0 L578.0,244.0 L643.0,244.0 L707.0,234.0 L782.0,234.0 L764.0,177.0 L774.0,119.0 L794.0,80.0 L719.0,80.0 L625.0,56.0 Z" fill="#efc676"/><text class="label" x="684.9" y="158.4">3</text></g>
<g data-village-id="4"><path class="v" d="M554.0,327.0 L527.0,426.0 L684.0,464.0 L694.0,364.0 L694.0,327.0 L633.0,336.0 L554.0,327.0 Z" fill="#b4df73"/><text class="label" x="618.8" y="390.2">4</text></g>
<g data-village-id="5"><path class="v" d="M811.0,294.0 L787.0,246.0 L707.0,246.0 L643.0,256.0 L574.0,256.0 L558.0,315.0 L633.0,324.0 L810.0,296.0 L811.0,294.0 Z" fill="#f19b77"/><text class="label" x="679.8" y="283.2">5</text></g>
<g data-village-id="6"><path class="v" d="M180.0,335.0 L229.0,359.0 L259.0,379.0 L279.0,409.0 L301.0,431.0 L330.0,450.0 L320.0,469.0 L327.0,485.0 L332.0,484.0 L430.0,524.0 L486.0,542.0 L542.0,325.0 L473.0,316.0 L385.0,316.0 L180.0,335.0 Z" fill="#f5dfad"/><text class="label" x="399.9" y="404.5">6</text></g>
<g data-village-id="7"><path class="v" d="M497.0,545.0 L666.0,564.0 L755.0,555.0 L852.0,523.0 L860.0,505.0 L883.0,487.0 L900.0,467.0 L756.0,486.0 L678.0,476.0 L524.0,437.0 L497.0,545.0 Z" fill="#b9a4e5"/><text class="label" x="666.5" y="509.1">7</text></g>
<g data-village-id="8"><path class="v" d="M846.0,538.0 L762.0,566.0 L674.0,576.0 L494.0,557.0 L470.0,647.0 L480.0,680.0 L465.0,700.0 L490.0,720.0 L521.0,720.0 L550.0,730.0 L576.0,761.0 L610.0,780.0 L650.0,790.0 L676.0,821.0 L691.0,829.0 L700.0,790.0 L719.0,761.0 L759.0,736.0 L790.0,700.0 L819.0,602.0 L832.0,588.0 L846.0,538.0 Z" fill="#efb8d8"/><text class="label" x="647.6" y="661.5">8</text></g>
<g data-village-id="9"><path class="v" d="M354.0,506.0 L362.0,512.0 L386.0,542.0 L395.0,574.0 L390.0,600.0 L410.0,620.0 L438.0,629.0 L459.0,643.0 L483.0,554.0 L428.0,536.0 L354.0,506.0 Z" fill="#c6f0cb"/><text class="label" x="429.2" y="576.2">9</text></g>
<g data-village-id="10"><path class="v" d="M600.0,124.0 L497.0,116.0 L215.0,154.0 L215.0,180.0 L200.0,210.0 L175.0,235.0 L141.0,245.0 L109.0,245.0 L80.0,255.0 L60.0,271.0 L164.0,327.0 L385.0,304.0 L474.0,304.0 L546.0,313.0 L600.0,124.0 Z" fill="#a8c6c3"/><text class="label" x="365.3" y="225.8">10</text></g>
<g data-village-id="11"><path class="v" d="M614.0,53.0 L467.0,88.0 L218.0,132.0 L216.0,145.0 L496.0,104.0 L603.0,113.0 L614.0,53.0 Z" fill="#9ed6e8"/><text class="label" x="467.9" y="99.5">11</text></g>
</svg>